<?xml version="1.0" standalone="no"?>
<!DOCTYPE svg PUBLIC "-//W3C//DTD SVG 1.1//EN" "http://www.w3.org/Graphics/SVG/1.1/DTD/svg11.dtd" >
<!--
2013-9-30: Created.
-->
<svg>
<metadata>
Created by iconfont
</metadata>
<defs>

<font id="iconfont" horiz-adv-x="1024" >
  <font-face
    font-family="iconfont"
    font-weight="500"
    font-stretch="normal"
    units-per-em="1024"
    ascent="896"
    descent="-128"
  />
    <missing-glyph />
    
    <glyph glyph-name="x" unicode="x" horiz-adv-x="1001"
d="M281 543q-27 -1 -53 -1h-83q-18 0 -36.5 -6t-32.5 -18.5t-23 -32t-9 -45.5v-76h912v41q0 16 -0.5 30t-0.5 18q0 13 -5 29t-17 29.5t-31.5 22.5t-49.5 9h-133v-97h-438v97zM955 310v-52q0 -23 0.5 -52t0.5 -58t-10.5 -47.5t-26 -30t-33 -16t-31.5 -4.5q-14 -1 -29.5 -0.5
t-29.5 0.5h-32l-45 128h-439l-44 -128h-29h-34q-20 0 -45 1q-25 0 -41 9.5t-25.5 23t-13.5 29.5t-4 30v167h911zM163 247q-12 0 -21 -8.5t-9 -21.5t9 -21.5t21 -8.5q13 0 22 8.5t9 21.5t-9 21.5t-22 8.5zM316 123q-8 -26 -14 -48q-5 -19 -10.5 -37t-7.5 -25t-3 -15t1 -14.5
t9.5 -10.5t21.5 -4h37h67h81h80h64h36q23 0 34 12t2 38q-5 13 -9.5 30.5t-9.5 34.5q-5 19 -11 39h-368zM336 498v228q0 11 2.5 23t10 21.5t20.5 15.5t34 6h188q31 0 51.5 -14.5t20.5 -52.5v-227h-327z" />
    

    
    <glyph glyph-name="shijian" unicode="&#58919;" d="M487.7298 591.3515l54.3055-0.5856-0.5856-250.4972 272.1149-103.9345-22.1909-58.3904-304.1566 111.5983L487.7298 591.3515zM76.6393 316.9125c0-241.867 196.0733-437.9321 437.9505-437.9321s437.9505 196.0651 437.9505 437.9321S756.4669 754.8446 514.5897 754.8446 76.6393 558.7795 76.6393 316.9125z"  horiz-adv-x="1000" />

    
    <glyph glyph-name="fenyezuihouye" unicode="&#58928;" d="M794.2943 750.2692c0 3.9311 1.5002 7.8623 4.4995 10.8605 2.9993 2.9993 6.9304 4.4995 10.8605 4.4995h151.552c3.9311 0 7.8623-1.4991 10.8605-4.4995 2.9993-2.9993 4.4995-6.9304 4.4995-10.8605v-865.28c0-3.9311-1.5002-7.8623-4.4995-10.8605s-6.9304-4.4995-10.8605-4.4995h-151.552c-3.9311 0-7.8623 1.5002-10.8605 4.4995s-4.4995 6.9304-4.4995 10.8605V750.269184zM80.5663-102.6563c0-5.3996 2.858-10.6332 7.9145-13.4349 5.0565-2.8017 11.009-2.4525 15.5873 0.4096L776.5862 304.6797c4.3387 2.7116 7.2192 7.5325 7.2192 13.0253s-2.8805 10.3127-7.2192 13.0253L104.0681 751.0925c-4.5783 2.8611-10.5308 3.2123-15.5873 0.4096-5.0565-2.8017-7.9145-8.0353-7.9145-13.4349V-102.6562560000001z"  horiz-adv-x="1024" />

    
    <glyph glyph-name="mobile" unicode="&#58929;" d="M704.235744 755.54215l-395.047358 0c-46.559409 0-84.653005-38.09462-84.653005-84.653005l0-733.659379c0-46.559409 38.09462-84.654029 84.653005-84.654029l395.047358 0c46.559409 0 84.653005 38.09462 84.653005 84.654029l0 733.659379C788.888749 717.447531 750.795153 755.54215 704.235744 755.54215zM393.841392 713.216159l225.741347 0 0-28.217668-225.741347 0L393.841392 713.216159zM506.712065-90.987902c-31.181163 0-56.435337 25.255197-56.435337 56.434314 0 31.182186 25.254174 56.435337 56.435337 56.435337 31.181163 0 56.435337-25.254174 56.435337-56.435337C563.147402-65.732705 537.893228-90.987902 506.712065-90.987902zM732.452389 78.318108l-451.482695 0 0 564.353368 451.482695 0L732.452389 78.318108z"  horiz-adv-x="1024" />

    
    <glyph glyph-name="search" unicode="&#58930;" d="M400.085333 58.734222c-192.128 0-348.444444 156.302222-348.444444 348.430222 0 192.142222 156.316444 348.444444 348.444444 348.444444 192.142222 0 348.444444-156.302222 348.444444-348.444444C748.544 215.036444 592.241778 58.734222 400.085333 58.734222zM400.085333 698.72c-160.768 0-291.555556-130.787556-291.555556-291.555556s130.787556-291.541333 291.555556-291.541333c160.753778 0 291.555556 130.773333 291.555556 291.541333S560.853333 698.72 400.085333 698.72zM194.104889 515.025778c-2.474667 0-4.977778 0.64-7.253333 2.005333-6.755556 3.996444-8.974222 12.743111-4.963556 19.484444 45.525333 76.657778 129.137778 124.273778 218.197333 124.273778 7.864889 0 14.222222-6.357333 14.222222-14.222222s-6.357333-14.222222-14.222222-14.222222c-79.075556 0-153.301333-42.296889-193.735111-110.364444C203.690667 517.500444 198.968889 515.025778 194.104889 515.025778zM160.682667 401.276444c-7.850667 0-14.222222 6.357333-14.222222 14.222222 0 20.195556 2.403556 31.445333 6.656 49.592889 1.792 7.651556 9.443556 12.373333 17.080889 10.609778 7.651556-1.792 12.401778-9.429333 10.609778-17.080889-3.982222-17.038222-5.902222-25.984-5.902222-43.121778C174.904889 407.633778 168.547556 401.276444 160.682667 401.276444zM887.04-155.608889c-22.812444 0-44.216889 8.860444-60.359111 24.974222L597.12 98.954667c-17.806222 17.806222-23.665778 39.808-16.526222 61.966222 5.831111 18.033778 19.498667 33.251556 30.748444 44.472889 16.668444 16.668444 37.162667 33.720889 62.890667 33.720889 10.965333 0 27.448889-3.384889 43.562667-19.498667l229.589333-229.560889c16.113778-16.142222 24.974222-37.560889 24.974222-60.359111 0-22.784-8.860444-44.216889-24.974222-60.330667C931.242667-146.748444 909.824-155.608889 887.04-155.608889zM634.510222 142.474667c0.085333 0 0.839111-1.336889 2.830222-3.299556l229.560889-229.589333c10.752-10.723556 29.496889-10.723556 40.248889 0 5.361778 5.390222 8.305778 12.529778 8.305778 20.110222 0 7.608889-2.944 14.748444-8.334222 20.138667L677.575111 179.395556c-2.033778 2.033778-3.356444 2.773333-3.726222 2.887111-0.199111-0.113778-6.058667-0.867556-22.272-17.109333C635.320889 148.945778 634.538667 143.086222 634.510222 142.474667L634.510222 142.474667z"  horiz-adv-x="1024" />

    
    <glyph glyph-name="calendar" unicode="&#58887;" d="M768 588c26.512 0 48 21.488 48 48L816 764c0 26.512-21.488 48-48 48s-48-21.488-48-48l0-128C720 609.488 741.488 588 768 588zM976 684l-96 0 0-48c0-61.856-50.144-112-112-112s-112 50.144-112 112L656 684 368 684l0-48c0-61.856-50.144-112-112-112s-112 50.144-112 112L144 684 48 684c-26.512 0-48-21.488-48-48l0-800c0-26.512 21.488-48 48-48l928 0c26.512 0 48 21.488 48 48L1024 636C1024 662.512 1002.512 684 976 684zM928-116 96-116 96 428l832 0L928-116zM256 588c26.512 0 48 21.488 48 48L304 764c0 26.512-21.488 48-48 48s-48-21.488-48-48l0-128C208 609.488 229.488 588 256 588zM421.776 177.888c-5.968-5.552-12.56-10.608-19.76-15.184-7.216-4.576-14-9.072-20.384-13.52-12.48-8.608-24.336-17.056-35.568-25.376-11.232-8.336-21.008-17.408-29.328-27.248s-14.912-20.992-19.76-33.504c-4.864-12.464-7.28-27.168-7.28-44.096L503.52 18.96l0 50.752-137.696 0c7.216 10 15.52 18.72 24.96 26.224 9.424 7.488 19.136 14.464 29.12 20.992 9.984 6.512 19.904 13.104 29.744 19.76 9.84 6.656 18.656 14.08 26.416 22.272 7.76 8.16 14 17.536 18.72 28.064 4.704 10.56 7.072 23.152 7.072 37.872 0 14.128-2.704 26.88-8.112 38.272-5.408 11.36-12.688 20.928-21.84 28.704-9.152 7.76-19.76 13.728-31.824 17.888C428.016 313.92 415.328 316 402.016 316c-17.472 0-32.928-2.992-46.384-8.944-13.456-5.968-24.624-14.288-33.488-24.96-8.88-10.672-15.536-23.152-19.968-37.44-4.432-14.288-6.384-29.744-5.824-46.368l56.576 0c0 7.744 0.768 15.6 2.288 23.504 1.52 7.904 4.08 15.12 7.696 21.632 3.6 6.512 8.384 11.792 14.352 15.808s13.248 6.032 21.84 6.032c12.752 0 23.232-3.952 31.408-11.856 8.176-7.904 12.272-18.928 12.272-33.072 0-8.88-2.016-16.784-6.032-23.696C432.72 189.68 427.728 183.44 421.776 177.888zM663.472 79.088c-4.304-5.136-9.568-9.312-15.808-12.48-6.24-3.184-13.248-4.784-20.992-4.784-13.312 0-24.288 3.952-32.88 11.856-8.576 7.904-13.6 18.496-14.976 31.808l-59.072 0c0.272-15.248 3.376-28.624 9.344-40.144 5.968-11.504 13.936-21.136 23.936-28.928 9.968-7.744 21.408-13.504 34.32-17.248s26.4-5.632 40.56-5.632c14.704-0.272 28.56 2.16 41.6 7.28 13.04 5.136 24.464 12.416 34.32 21.84s17.68 20.592 23.52 33.504c5.824 12.88 8.736 26.816 8.736 41.792 0 13.584-2.016 26.416-6.032 38.48-4.032 12.064-9.84 22.528-17.472 31.408s-16.992 15.952-28.096 21.216c-11.072 5.248-23.84 7.904-38.256 7.904-11.664 0-22.064-1.744-31.216-5.216-9.136-3.472-17.728-9.2-25.776-17.248l-0.848 0.832 11.664 66.144 120.224 0 0 48.672L557.6 310.144l-28.688-160.992 53.232 0c5.824 8.048 12.08 13.936 18.736 17.68 6.656 3.728 15.232 5.6 25.776 5.6 8.048 0 15.12-1.376 21.216-4.16 6.096-2.752 11.376-6.656 15.808-11.648 4.416-4.992 7.744-10.816 9.968-17.472 2.24-6.656 3.344-13.728 3.344-21.216 0-7.216-1.184-14.24-3.552-21.008C671.088 90.176 667.744 84.224 663.472 79.088z"  horiz-adv-x="1024" />

    
    <glyph glyph-name="down" unicode="&#58913;" d="M1024 300C1024 582.77 794.77 812 512 812s-512-229.23-512-512 229.23-512 512-512S1024 17.23 1024 300zM96 300c0 229.75 186.25 416 416 416S928 529.75 928 300s-186.25-416-416-416S96 70.25 96 300zM557.254-1.256l256 256.002c24.994 24.992 24.994 65.514 0 90.508-24.994 24.994-65.516 24.994-90.51 0L576 198.51 576 556c0 35.346-28.654 64-64 64-35.346 0-64-28.654-64-64l0-357.49-146.744 146.746c-24.994 24.994-65.518 24.994-90.512 0C198.248 332.758 192 316.378 192 300s6.248-32.758 18.744-45.254l256-256.002C491.738-26.248 532.262-26.248 557.254-1.256z"  horiz-adv-x="1024" />

    
    <glyph glyph-name="gouwuche" unicode="&#58932;" d="M765.747191 64.093129c-16.919345 0-32.692586-4.964058-45.978171-13.482059L411.612639 50.61107c-13.285584 8.518001-29.058826 13.482059-45.978171 13.482059-0.048095 0-0.094144-0.00307-0.14224-0.004093l-6.835685 62.492286 472.706065 0 129.429815 436.82588L298.022581 563.407202l-78.308507 111.868857L66.179258 675.276059l0-51.16531 126.895085 0 66.281589-94.686523 58.34585-393.836787-1.193175-0.130983 8.908904-81.446987c-26.891464-14.408151-45.230134-42.780339-45.230134-75.363432 0-47.115064 38.331004-85.446068 85.446068-85.446068s85.446068 38.331004 85.446068 85.446068c0 10.945283-2.091638 21.405519-5.858428 31.03176l240.936421 0c-3.76679-9.626241-5.858428-20.086477-5.858428-31.03176 0-47.115064 38.331004-85.446068 85.446068-85.446068s85.446068 38.331004 85.446068 85.446068S812.862255 64.093129 765.747191 64.093129zM365.634468-65.866758c-24.545022 0-44.51382 19.968797-44.51382 44.51382s19.968797 44.51382 44.51382 44.51382 44.51382-19.968797 44.51382-44.51382S390.178467-65.866758 365.634468-65.866758zM765.747191-65.866758c-24.545022 0-44.51382 19.968797-44.51382 44.51382 0 12.059664 4.827959 23.006993 12.642948 31.03176l3.158946 0 0 2.947122c7.757684 6.564509 17.776875 10.534937 28.711925 10.534937 24.545022 0 44.51382-19.968797 44.51382-44.51382S790.292214-65.866758 765.747191-65.866758z"  horiz-adv-x="1024" />

    
    <glyph glyph-name="table" unicode="&#58891;" d="M329.142852 25.714286l0 109.714286q0 8.009143-5.156571 13.129143t-13.129143 5.156571l-182.857143 0q-8.009143 0-13.129143-5.156571t-5.156571-13.129143l0-109.714286q0-8.009143 5.156571-13.129143t13.129143-5.156571l182.857143 0q8.009143 0 13.129143 5.156571t5.156571 13.129143zM329.142852 245.142857l0 109.714286q0 8.009143-5.156571 13.129143t-13.129143 5.156571l-182.857143 0q-8.009143 0-13.129143-5.156571t-5.156571-13.129143l0-109.714286q0-8.009143 5.156571-13.129143t13.129143-5.156571l182.857143 0q8.009143 0 13.129143 5.156571t5.156571 13.129143zM621.714281 25.714286l0 109.714286q0 8.009143-5.156571 13.129143t-13.129143 5.156571l-182.857143 0q-8.009143 0-13.129143-5.156571t-5.156571-13.129143l0-109.714286q0-8.009143 5.156571-13.129143t13.129143-5.156571l182.857143 0q8.009143 0 13.129143 5.156571t5.156571 13.129143zM329.142852 464.571429l0 109.714286q0 8.009143-5.156571 13.129143t-13.129143 5.156571l-182.857143 0q-8.009143 0-13.129143-5.156571t-5.156571-13.129143l0-109.714286q0-8.009143 5.156571-13.129143t13.129143-5.156571l182.857143 0q8.009143 0 13.129143 5.156571t5.156571 13.129143zM621.714281 245.142857l0 109.714286q0 8.009143-5.156571 13.129143t-13.129143 5.156571l-182.857143 0q-8.009143 0-13.129143-5.156571t-5.156571-13.129143l0-109.714286q0-8.009143 5.156571-13.129143t13.129143-5.156571l182.857143 0q8.009143 0 13.129143 5.156571t5.156571 13.129143zM914.285709 25.714286l0 109.714286q0 8.009143-5.156571 13.129143t-13.129143 5.156571l-182.857143 0q-8.009143 0-13.129143-5.156571t-5.156571-13.129143l0-109.714286q0-8.009143 5.156571-13.129143t13.129143-5.156571l182.857143 0q8.009143 0 13.129143 5.156571t5.156571 13.129143zM621.714281 464.571429l0 109.714286q0 8.009143-5.156571 13.129143t-13.129143 5.156571l-182.857143 0q-8.009143 0-13.129143-5.156571t-5.156571-13.129143l0-109.714286q0-8.009143 5.156571-13.129143t13.129143-5.156571l182.857143 0q8.009143 0 13.129143 5.156571t5.156571 13.129143zM914.285709 245.142857l0 109.714286q0 8.009143-5.156571 13.129143t-13.129143 5.156571l-182.857143 0q-8.009143 0-13.129143-5.156571t-5.156571-13.129143l0-109.714286q0-8.009143 5.156571-13.129143t13.129143-5.156571l182.857143 0q8.009143 0 13.129143 5.156571t5.156571 13.129143zM914.285709 464.571429l0 109.714286q0 8.009143-5.156571 13.129143t-13.129143 5.156571l-182.857143 0q-8.009143 0-13.129143-5.156571t-5.156571-13.129143l0-109.714286q0-8.009143 5.156571-13.129143t13.129143-5.156571l182.857143 0q8.009143 0 13.129143 5.156571t5.156571 13.129143zM987.428566 647.428571l0-621.714286q0-37.705143-26.843429-64.585143t-64.585143-26.843429l-768 0q-37.705143 0-64.585143 26.843429t-26.843429 64.585143l0 621.714286q0 37.705143 26.843429 64.585143t64.585143 26.843429l768 0q37.705143 0 64.585143-26.843429t26.843429-64.585143z"  horiz-adv-x="1024" />

    
    <glyph glyph-name="componentc" unicode="&#58898;" d="M1006.893551 217.65035c-9.547786 21.482517-22.278166 40.578089-38.191142 57.286713-15.912976 16.708625-35.008547 29.439005-57.286713 38.191142-21.482517 9.547786-44.556333 14.321678-68.425796 14.321678-22.278166 0-43.760684-3.978244-63.651904-11.934732-19.89122-7.956488-37.395493-19.095571-52.512821-31.825952l0 155.151515c0 20.686869-7.160839 38.986791-22.278166 54.104118-14.321678 15.117327-32.621601 23.073815-53.308469 23.073815l-110.595183 0c27.052059 31.825952 40.578089 70.017094 40.578089 112.982129 0 25.460761-4.773893 49.330225-14.321678 71.608392-9.547786 22.278166-22.278166 41.373737-38.986791 58.082362-15.912976 16.708625-35.804196 29.439005-57.286713 38.986791-22.278166 9.547786-45.351981 14.321678-70.017094 14.321678-24.665113 0-48.534577-4.773893-70.017094-14.321678-22.278166-9.547786-41.373737-23.073815-57.286713-38.986791-15.912976-16.708625-29.439005-35.804196-38.986791-58.082362-9.547786-22.278166-14.321678-46.14763-14.321678-71.608392 0-21.482517 3.978244-42.169386 11.139083-61.264957 7.160839-19.095571 17.504274-36.599845 29.439005-51.717172l-181.407925 0c-20.686869 0-38.986791-7.956488-54.104118-23.073815s-22.278166-33.417249-22.278166-54.104118l0-122.529915c0.795649-16.708625 3.182595-27.847708 7.956488-35.008547 4.773893-7.160839 10.343434-11.139083 17.504274-11.934732 7.160839-0.795649 15.117327 0.795649 23.869464 4.773893s18.299922 7.956488 27.052059 12.730381c3.182595 1.591298 7.160839 3.182595 11.934732 4.773893 19.095571 8.752137 38.986791 12.730381 58.878011 12.730381 20.686869 0 40.578089-3.978244 58.878011-11.934732 18.299922-7.956488 34.212898-18.299922 47.738928-31.825952 13.52603-13.52603 23.869464-29.439005 31.825952-47.738928 7.956488-18.299922 11.934732-38.191142 11.934732-58.878011 0-20.686869-3.978244-40.578089-11.934732-58.082362-7.956488-18.299922-18.299922-33.417249-31.825952-46.943279-13.52603-13.52603-29.439005-24.665113-47.738928-31.825952-18.299922-7.956488-37.395493-11.934732-58.878011-11.934732-20.686869 0-41.373737 4.773893-61.264957 15.117327-4.773893 0.795649-11.934732 3.978244-20.686869 9.547786-19.095571 11.934732-34.212898 13.52603-43.760684 5.569542-10.343434-7.956488-16.708625-19.89122-20.686869-35.804196l0-129.690754c0-20.686869 7.956488-38.986791 22.278166-53.308469 15.117327-15.117327 33.417249-22.278166 54.104118-22.278166l466.250194 0-94.682207 94.682207 0 0-78.769231 78.769231 78.769231 78.769231 0 0 145.60373 145.60373 78.769231-78.769231-145.60373-145.60373 145.60373-145.60373-28.643357-28.643357 4.773893 0c20.686869 0 38.986791 7.160839 53.308469 22.278166 14.321678 15.117327 22.278166 32.621601 22.278166 53.308469l0 145.60373c15.117327-13.52603 33.417249-23.869464 52.512821-31.825952 19.89122-7.956488 40.578089-11.934732 63.651904-11.934732 6.36519 0 12.730381 0 18.299922 0.795649l-141.625486 141.625486 78.769231 78.769231 145.60373-145.60373 0 0 23.073815-23.073815c0 0 0 0 0 0 15.912976 16.708625 28.643357 35.008547 38.191142 56.491064 9.547786 21.482517 14.321678 44.556333 14.321678 69.221445C1021.215229 172.298368 1016.441336 195.372183 1006.893551 217.65035zM633.734266 112.624709l-33.417249 33.417249-179.020979-179.020979 33.417249-33.417249 145.60373-145.60373 33.417249 33.417249-145.60373 145.60373L633.734266 112.624709zM761.833722 112.624709l145.60373-145.60373-145.60373-145.60373 33.417249-33.417249 179.020979 179.020979-179.020979 179.020979L761.833722 112.624709z"  horiz-adv-x="1024" />

    
    <glyph glyph-name="pager" unicode="&#58914;" d="M273.538586 758.574869l0-513.605818L53.423838 244.969051c0 0 0-226.708687 0-299.969939 0-73.285818 68.212364-103.575273 118.76202-103.575273 50.535434 0 559.464727 0 688.332283 0 55.602424 0 110.05802 54.079354 110.05802 110.05802 0 40.413091 0 807.091717 0 807.091717L273.538586 758.573576zM172.185859-121.891879c-22.83701 0-82.077737 12.021657-82.077737 66.89099L90.108121 208.283475l183.430465 0 0-247.469253c0-24.556606-32.100848-82.706101-82.700929-82.706101L172.185859-121.891879zM933.888-48.516848c0-35.646061-37.704404-73.37503-73.369859-73.37503L271.732364-121.891879c24.701414 25.743515 38.494384 59.544566 38.494384 82.706101L310.226747 208.283475l0 26.280081 0 10.406788L310.226747 721.891879l623.661253 0L933.888-48.516848zM860.518141 648.519434 383.596606 648.519434l0-36.685576 476.921535 0L860.518141 648.519434zM860.518141 153.256404 383.596606 153.256404l0-36.685576 476.921535 0L860.518141 153.256404zM860.518141 24.85301 383.596606 24.85301l0-36.684283 476.921535 0L860.518141 24.85301zM860.518141 520.117333 383.596606 520.117333l0-275.148283 476.921535 0L860.518141 520.117333zM823.831273 281.658505 420.284768 281.658505 420.284768 483.431758l403.546505 0L823.831273 281.658505z"  horiz-adv-x="1024" />

    
    <glyph glyph-name="homepageassemblyorder" unicode="&#58899;" d="M926.4 475.2 796.7 475.2 796.7 610.7l-108 0c10.4 15.2 23.7 29.4 38.8 44.5l8.5-7.6 5.7 6.6-11.4 9.5L664 721.5l0 0-11.4 10.4c0 0.9-5.7-7.6-5.7-6.6l8.5-7.6c-35-44.5-67.3-76.7-113.7-86.2l-9.5 7.6c0 0-4.7-4.7-5.7-6.6l25.6-22.7L399.7 609.8 263.3 474.3 215 474.3 96.6 355.9l0-430.1 143 0L239.6-132l557 0 0 46.4 130.7 0L927.3 475.2 926.4 475.2zM659.3 698.8 683 677l24.6-20.8c-32.2-32.2-54.9-62.5-59.7-101.4l-81.5 72C603.4 635.3 630.9 661.8 659.3 698.8zM127.9-43.9 127.9 355.9 215 355.9 215 443l24.6 0 0-486L127.9-43 127.9-43.9zM754-90.3 281.3-90.3l0 77.7L281.3 449.6l118.4 0L399.7 568l169.6 0-31.3-49.3-7.6 33.2-8.5-1.9 9.5-44.5 47.4-14.2 1.9 8.5-37.9 10.4 61.6 52.1 54-47.4c1.9 1.9 5.7 6.6 5.7 6.6l-9.5 8.5c0.9 13.3 3.8 25.6 8.5 37.9l88.1 0 0-658.4L754-90.5zM539 512.2 539 512.2 539 512.2 539 512.2zM893.3-51.5l-96.6 0L796.7 441.1l96.6 0L893.3-51.5zM332.5 70.7l371.3 0 0-17.1L332.5 53.6 332.5 70.7zM332.5 163.6l371.3 0 0-17.1L332.5 146.5 332.5 163.6zM430.1 319.9l272.8 0 0-17.1L430.1 302.8 430.1 319.9zM413 319.9l-84.3 0 0-84.3L413 235.6 413 319.9zM396.9 252.6l-50.2 0 0 50.2 50.2 0L396.9 252.6zM430.1 252.6l272.8 0 0-17.1L430.1 235.5 430.1 252.6z"  horiz-adv-x="1024" />

    
    <glyph glyph-name="collapse" unicode="&#58909;" d="M367.808 531.808l-110.528 110.464-85.312-85.312 110.528-110.528-82.88-82.88 249.536-0.128-0.512 249.088-80.832-80.768zM741.504 446.496l110.528 110.464-85.248 85.312-110.528-110.528-80.768 80.832-0.512-249.088 249.536 0.128-82.88 82.88zM282.496 153.504l-110.528-110.464 85.248-85.248 110.528 110.464 80.832-80.768 0.512 249.088-249.472-0.128 82.816-82.88zM824.384 236.384l-249.536 0.128 0.512-249.088 80.768 80.768 110.528-110.464 85.248 85.248-110.528 110.464 82.88 82.88z"  horiz-adv-x="1024" />

    
    <glyph glyph-name="map" unicode="&#59032;" d="M946.304 538.84 737.188 679.386c-9.288 6.152-20.73 6.152-30.062 0l-194.188-130.39-194.218 130.39c-9.286 6.152-20.888 6.152-30.124 0L78.688 538.84c-8.798-5.898-14.688-16.544-14.688-28.1L64-51.2c0-11.808 6.14-22.694 15.326-28.542 9.24-5.754 20.764-5.658 29.808 0.446l194.376 130.394 194.362-130.394c9.332-6.2 20.88-6.2 30.168 0l194.316 130.394 194.302-130.394c4.622-3.1 9.824-4.706 15.076-4.706 4.91 0 9.418 1.494 13.938 4.26 9.188 5.848 14.33 16.732 14.33 28.542l0 561.94C960 522.296 955.15 532.942 946.304 538.84zM270 105.504l-142-98.808 0 483.5 142 98.856L270 105.504zM334 106.468l0 245.4c2.334-1.512 4.62-3.052 6.778-4.602l18.666 25.992c-7.808 5.608-16.584 11.002-25.444 15.41L334 590.016l146-97.984 0-217.148c-10.744 3.71-21.172 8.74-31.786 15.364l-16.942-27.148c13.696-8.546 27.242-14.934 41.408-19.53l7.32 22.572 0-257.612L334 106.468zM544 8.532 544 235.262c0.698 0.042 1.386 0.06 2.086 0.108 5.82 0.396 11.554 1.034 17.036 1.892l-4.958 31.614c-4.536-0.71-9.3-1.238-14.164-1.572L544 492.032l146 97.984L690 352.44l-9.688 8.744c-5.994-6.638-11.666-13.15-17.15-19.45-3.612-4.146-7.156-8.216-10.678-12.19l23.948-21.226c3.582 4.042 7.19 8.182 10.862 12.4 0.886 1.018 1.81 2.07 2.708 3.098l0-217.35L544 8.532zM896 8.696l-142 96.876 0 273.82c7.57 3.43 15.358 5.984 23.278 7.584l-6.332 31.366c-5.716-1.154-11.374-2.678-16.946-4.562l0 175.342 142-96.922L896 8.696zM258.57 369.778c4.436 2.39-2.706 2.142 2.024 3.674l-9.856 30.444c-6.564-2.124-13.004-4.878-19.142-8.186-7.648-4.124-15.49-9.832-22.678-16.506l21.776-23.448C235.926 360.612 253.278 366.924 258.57 369.778zM593.604 279.746l13.97-28.79c13.192 6.402 25.684 14.89 38.19 25.948l-21.198 23.974C614.27 291.774 604.142 284.862 593.604 279.746zM198.728 299.988c3.786 11.852 7.056 22.088 14.258 32.608l-26.408 18.074c-9.848-14.388-14.162-27.888-18.334-40.942l-0.484-1.516 30.476-9.758L198.728 299.988zM396.622 336.494c-2.014 2.408-4.028 4.816-6.064 7.206l-24.356-20.758c1.972-2.312 3.922-4.644 5.872-6.976 7.186-8.592 14.616-17.478 23.22-25.618l21.992 23.248C410.04 320.45 403.522 328.244 396.622 336.494zM816.312 352.686 837 373.372 857.688 352.686 880.312 375.316 859.628 396 880.312 416.686 857.688 439.316 837 418.63 816.312 439.316 793.688 416.686 814.372 396 793.688 375.316Z"  horiz-adv-x="1024" />

    
    <glyph glyph-name="bootstrap" unicode="&#58906;" d="M259.048429 677.665479c85.677335 13.33675 186.702216 5.484921 296.201096 5.484921 154.988934 0 289.310152 14.646582 329.11267-82.277912 21.98778-53.544497 10.969842-115.656113 10.969842-153.585981 0-115.898637 26.762527-394.700457-21.939685-471.727785-8.433066-13.33675-38.058804-40.187281-60.337203-49.366338-71.973218-29.652344-205.003024-10.970866-301.686017-10.970866-164.143431 0-327.563384-27.6395-372.994086 82.277912-32.79287 79.339999-10.970866 338.198605-10.970866 460.756919 0 27.317159-9.54233 93.462648 10.970866 142.615115C156.383188 644.025311 201.164091 668.655268 259.048429 677.665479zM703.349561 381.464383c61.211107 203.128327-239.259222 151.566998-378.479007 153.585981 0-160.898527 0-321.7991 0-482.69865 124.227326 8.600889 309.915445-27.76639 378.479007 49.367361 28.786627 32.383548 45.367257 99.078553 16.455787 159.069879-14.398942 29.879518-43.252083 34.652218-71.308069 60.337203C679.420569 339.430034 694.057941 350.630121 703.349561 381.464383zM434.575118 458.257374c42.825364-15.683191 123.754558 6.736425 159.070902-16.455787 51.684126-97.568153-67.080791-109.325941-159.070902-98.733699C434.575118 381.464383 434.575118 419.860878 434.575118 458.257374zM615.585705 156.571357c-37.360909-30.289863-114.706485-20.595061-181.01161-21.940708 0 43.881416 0 87.763856 0 131.644249C539.550984 277.835188 668.470169 267.82009 615.585705 156.571357z"  horiz-adv-x="1024" />

    
    <glyph glyph-name="dynamic" unicode="&#58920;" d="M400.222316-174.300632c-5.335579 0-10.725053 0.970105-15.872 3.045053-16.168421 6.467368-26.704842 22.096842-26.704842 39.504842l0 176.747789C184.32 72.348632 53.894737 232.065684 53.894737 426.383158 53.894737 639.024842 213.746526 812 410.192842 812l371.469474 0c196.473263 0 356.271158-172.975158 356.271158-385.616842 0-212.614737-159.797895-385.616842-356.271158-385.616842L624.370526 40.766316l-193.428211-201.943579C422.750316-169.719579 411.567158-174.300632 400.222316-174.300632zM410.192842 726.846316C260.688842 726.846316 139.021474 592.082526 139.021474 426.383158c0-163.301053 115.361684-295.154526 262.629053-300.247579 22.959158-0.754526 41.094737-19.590737 41.094737-42.496l0-109.406316 132.688842 138.563368c8.057263 8.380632 19.132632 13.123368 30.773895 13.123368l175.454316 0c149.504 0 271.144421 134.763789 271.144421 300.436211S931.166316 726.846316 781.662316 726.846316L410.192842 726.846316z"  horiz-adv-x="1186" />

    
    <glyph glyph-name="zhezhao" unicode="&#58882;" d="M0 812l0-1024 1024 0L1024 812 0 812zM512-73.312c-206.208 0-373.312 167.104-373.312 373.312S305.792 673.312 512 673.312 885.312 506.208 885.312 300 718.208-73.312 512-73.312z"  horiz-adv-x="1024" />

    
    <glyph glyph-name="select" unicode="&#58883;" d="M281.611519 44.038398l-204.789761 0c-42.340283 0-76.79616 34.455877-76.79616 76.79616l0 614.369282c0 42.340283 34.455877 76.79616 76.79616 76.79616l716.764162 0c42.340283 0 76.79616-34.455877 76.79616-76.79616l0-358.382081c0-14.130493-11.468227-25.59872-25.59872-25.59872s-25.59872 11.468227-25.59872 25.59872l0 358.382081c0 14.130493-11.468227 25.59872-25.59872 25.59872l-716.764162 0c-14.130493 0-25.59872-11.468227-25.59872-25.59872l0-614.369282c0-14.130493 11.468227-25.59872 25.59872-25.59872l204.789761 0c14.130493 0 25.59872-11.468227 25.59872-25.59872s-11.468227-25.59872-25.59872-25.59872zM665.59232-211.948803c-10.137093 0-19.762212 6.092495-23.755612 16.075996l-86.882056 217.179541-151.698015-173.354532c-7.014049-8.037998-18.277486-10.853857-28.260987-7.116444s-16.587971 13.311334-16.587971 23.960402l0 767.961602c0 10.137093 5.9901 19.301435 15.256837 23.39723s20.069397 2.355082 27.59542-4.454177l563.171841-511.974401c7.833208-7.116444 10.495475-18.328684 6.655667-28.158592s-13.311334-16.383181-23.858007-16.383181l-218.152292 0 88.366782-220.865757c5.273336-13.106545-1.126344-28.005-14.284086-33.278336l-127.9936-51.19744c-3.123044-1.228739-6.348483-1.843108-9.522724-1.843108zM563.19744 95.235838c1.433528 0 2.867057-0.102395 4.300585-0.358382 8.80596-1.484726 16.127194-7.474826 19.455027-15.717614l92.872156-232.231588 80.482376 32.20319-92.872156 232.231588c-3.174241 7.884406-2.20149 16.843958 2.559872 23.858007s12.696965 11.263437 21.19574 11.263437l189.788911 0-471.374831 428.522574 0-641.964702 134.342083 153.541123c4.914954 5.580521 11.929004 8.754762 19.250237 8.754762z"  horiz-adv-x="1024" />

    
    <glyph glyph-name="gird" unicode="&#58934;" d="M812.8 768 211.2 768C166.4 768 128 729.6 128 684.8l0-608C128 38.4 166.4 0 211.2 0l608 0c44.8 0 83.2 38.4 83.2 83.2L902.4 684.8C896 729.6 857.6 768 812.8 768zM832 83.2c0-6.4-6.4-19.2-19.2-19.2L211.2 64C198.4 64 192 70.4 192 83.2L192 684.8C192 697.6 198.4 704 211.2 704l608 0C825.6 704 832 697.6 832 684.8L832 83.2zM768 467.2c19.2 0 32 12.8 32 32S787.2 531.2 768 531.2l-108.8 0L659.2 640c0 19.2-12.8 32-32 32S595.2 659.2 595.2 640l0-108.8L428.8 531.2 428.8 640c0 19.2-12.8 32-32 32S364.8 659.2 364.8 640l0-108.8L256 531.2C236.8 531.2 224 512 224 499.2c0-19.2 12.8-32 32-32l108.8 0 0-160L256 307.2c-19.2 0-32-12.8-32-32s12.8-32 32-32l108.8 0L364.8 128c0-19.2 12.8-32 32-32 19.2 0 32 12.8 32 32l0 108.8 160 0L588.8 128c0-19.2 12.8-32 32-32s32 12.8 32 32l0 108.8L768 236.8c19.2 0 32 12.8 32 32S787.2 300.8 768 300.8l-108.8 0L659.2 467.2 768 467.2zM595.2 300.8 428.8 300.8 428.8 467.2l160 0L588.8 300.8z"  horiz-adv-x="1024" />

    
    <glyph glyph-name="pagingpulldown" unicode="&#58915;" d="M1009.813776 594.567899c-16.706497 17.278525-43.788296 17.278525-60.490699 0L511.187365 99.801399 73.046536 594.567899c-16.709567 17.278525-43.788296 17.278525-60.490699 0-16.717753-17.283642-16.717753-45.296649 0-62.575174l466.233654-526.493086c8.91709-9.219989 20.72809-13.146415 32.397874-12.525268 11.665691-0.621147 23.484877 3.305279 32.397874 12.525268l466.22956 526.493086C1026.527436 549.27125 1026.527436 577.284257 1009.813776 594.567899z"  horiz-adv-x="1024" />

    
    <glyph glyph-name="giconpicker" unicode="&#58910;" d="M880.96 722.592 142.976 722.592c-7.488 0-13.696-6.208-13.696-13.696l0-228.864 0-509.184c0-7.488 6.208-13.76 13.696-13.76l737.92 0c7.488 0 13.76 6.272 13.76 13.76L894.656 480.032 894.656 708.896C894.656 716.384 888.448 722.592 880.96 722.592zM156.736 695.136 867.2 695.136l0-201.344L156.736 493.792 156.736 695.136zM156.736 466.336 867.2 466.336l0-297.344-170.816 0c-7.488 0-13.696-6.144-13.696-13.76l0-170.624L156.736-15.392 156.736 466.336zM847.744 141.6l-137.6-137.6 0 137.6L847.744 141.6zM729.536-15.392l137.6 137.472 0-137.472L729.536-15.392zM351.168 630.56c-19.84 0-36.032-16.128-36.032-36.032 0-19.968 16.192-36.16 36.032-36.16 19.904 0 36.096 16.192 36.096 36.16C387.328 614.432 371.072 630.56 351.168 630.56zM342.656 594.528c0 4.736 3.84 8.576 8.512 8.576 4.736 0 8.64-3.84 8.64-8.576C359.808 584.736 342.656 584.736 342.656 594.528zM672.576 630.56c-19.84 0-36.032-16.128-36.032-36.032 0-19.968 16.256-36.16 36.032-36.16 20.032 0 36.16 16.192 36.16 36.16C708.736 614.432 692.544 630.56 672.576 630.56zM664 594.528c0 4.736 3.904 8.576 8.576 8.576 4.736 0 8.704-3.84 8.704-8.576C681.28 584.928 664 584.8 664 594.528z"  horiz-adv-x="1024" />

    
    <glyph glyph-name="yaonavigation" unicode="&#58884;" d="M198.912 555.488m-56.405333 0a1.983 1.983 0 1 0 112.810667 0 1.983 1.983 0 1 0-112.810667 0ZM341.219556 583.932444l540.728889 0 0-56.888889-540.728889 0 0 56.888889ZM198.912 300.512m-56.405333 0a1.983 1.983 0 1 0 112.810667 0 1.983 1.983 0 1 0-112.810667 0ZM341.219556 328.956444l540.728889 0 0-56.888889-540.728889 0 0 56.888889ZM198.912 44.512m-56.405333 0a1.983 1.983 0 1 0 112.810667 0 1.983 1.983 0 1 0-112.810667 0ZM341.219556 72.984889l540.728889 0 0-56.888889-540.728889 0 0 56.888889Z"  horiz-adv-x="1024" />

    
    <glyph glyph-name="jiahao" unicode="&#58880;" d="M867.370195 393.727685l-261.312494 0 0 261.21835c0 51.644217-41.908482 93.592608-93.592608 93.592608-51.683103 0-93.591585-41.948391-93.591585-93.592608l0-261.21835-261.488503 0c-51.691289 0-93.592608-41.948391-93.592608-93.591585 0-51.732222 41.901319-93.592608 93.592608-93.592608l261.488503 0 0-261.488503c0-51.732222 41.909505-93.592608 93.591585-93.592608 51.685149 0 93.592608 41.860387 93.592608 93.592608l0 261.488503 261.312494 0c51.684126 0 93.591585 41.860387 93.591585 93.592608C960.96178 351.77827 919.055344 393.727685 867.370195 393.727685z"  horiz-adv-x="1024" />

    
    <glyph glyph-name="icon" unicode="&#58902;" d="M702.77651 132.255555 702.77651-7.220057 611.275539 91.750025 362.346073-18.52145 129.131521 617.760111 958.808744 245.679837 811.519166 180.426671 228.698191 527.686652 703.01494 132.363002Z"  horiz-adv-x="1024" />

    
    <glyph glyph-name="tabedittab" unicode="&#58921;" d="M952.9 741 71.1 741C36 741 8 712.6 8 677.6l0-755.1C8-112.7 36.2-141 71.1-141l881.9 0c35 0 63.1 28.4 63.1 63.4L1016.1 677.6C1016 712.7 987.8 741 952.9 741zM953-78 71-78 71 489l441 0L512 678l441 0L953-78z"  horiz-adv-x="1024" />

    
    <glyph glyph-name="1" unicode="&#58933;" d="M836.7616 527.5072l0 22.144c0 68.4032-57.6 125.4912-126.5408 125.4912l-329.216 0-2.7136 4.1984-29.312 42.0864C328.0384 751.6864 286.72 773.6 254.2336 773.6L58.5728 773.6C26.3424 773.6 0 751.6864 0 721.4272L0 22.496l107.2896 386.8928c17.9712 64.4864 99.2 118.1184 178.6624 118.1184L836.7616 527.5072zM323.4048 478.2784c-70.912 0-143.232-45.2608-159.2576-99.6608L27.8016-86.5344c-15.9744-54.3744 29.7728-99.6608 100.6592-99.6608l606.3872 0c70.912 0 143.2064 45.2864 159.2576 99.6608l136.2944 465.1264c16 54.4-29.7472 99.6608-100.6592 99.6608L323.4048 478.2528zM442.9824 23.7248l0 159.232-64.4864 0c-27.8016 15.2832 9.088 42.3424 9.088 42.3424s119.8592 98.432 135.3728 104.576c24.576 17.7152 35.4304 0 35.4304 0s138.5472-100.8896 151.808-117.6576c6.4512-26.8288-2.6624-29.2864-2.6624-29.2864l-67.712 0 0-161.4336c0-20.6848-18.2016-35.456-39.9104-35.456l-120.064 0C458.24-13.9328 442.9824 3.3216 442.9824 23.7248z"  horiz-adv-x="1034" />

    
    <glyph glyph-name="chart" unicode="&#58904;" d="M576 448 576 896c265.088 0 448-182.912 448-448L576 448zM480-128C214.912-128 0 86.912 0 352 0 641.088 210.912 832 512 832l0-448 448 0C960 118.912 745.088-128 480-128z"  horiz-adv-x="1024" />

    
    <glyph glyph-name="alert" unicode="&#58903;" d="M956.415999 265.216c13.652992-10.923008 19.115008-22.187008 16.384-33.792-2.731008-11.604992-12.288-19.456-28.672-23.552 0 0-79.872-22.528-79.872-22.528-16.384-4.096-30.036992-13.652992-40.96-28.672-10.923008-15.019008-15.700992-31.403008-14.336-49.152 0 0 4.096-83.968 4.096-83.968 1.364992-16.384-3.412992-27.988992-14.336-34.816-10.923008-6.827008-23.892992-6.827008-38.912 0 0 0-88.064 45.056-88.064 45.056-15.019008 8.192-31.060992 9.556992-48.128 4.096-17.067008-5.460992-29.012992-15.700992-35.84-30.72 0 0-47.104-90.112-47.104-90.112-8.192-15.019008-18.091008-22.868992-29.696-23.552-11.604992-0.683008-22.868992 5.803008-33.792 19.456 0 0-51.2 79.872-51.2 79.872-23.211008 32.768-53.248 39.595008-90.112 20.48 0 0-124.928-71.68-124.928-71.68-15.019008-9.556992-25.940992-11.604992-32.768-6.144-6.827008 5.460992-7.508992 16.384-2.048 32.768 0 0 55.296 167.936 55.296 167.936 5.460992 16.384 4.096 31.403008-4.096 45.056-8.192 13.652992-20.48 21.163008-36.864 22.528 0 0-108.544 12.288-108.544 12.288-16.384 2.731008-26.283008 8.875008-29.696 18.432-3.412992 9.556992 1.707008 19.796992 15.36 30.72 0 0 88.064 77.824 88.064 77.824 13.652992 10.923008 20.48 24.916992 20.48 41.984 0 17.067008-6.827008 31.060992-20.48 41.984 0 0-88.064 77.824-88.064 77.824-13.652992 10.923008-19.115008 22.187008-16.384 33.792 2.731008 11.604992 12.288 19.456 28.672 23.552 0 0 79.872 22.528 79.872 22.528 16.384 4.096 30.379008 13.652992 41.984 28.672 11.604992 15.019008 16.724992 31.403008 15.36 49.152 0 0-6.144 83.968-6.144 83.968 0 17.748992 5.12 30.036992 15.36 36.864 10.24 6.827008 22.868992 6.827008 37.888 0 0 0 81.92-38.912 81.92-38.912 16.384-6.827008 33.108992-7.508992 50.176-2.048 17.067008 5.460992 29.696 15.700992 37.888 30.72 0 0 47.104 81.92 47.104 81.92 8.192 15.019008 18.432 22.187008 30.72 21.504 12.288-0.683008 22.528-8.532992 30.72-23.552 0 0 51.2-88.064 51.2-88.064 8.192-15.019008 20.139008-24.916992 35.84-29.696 15.700992-4.779008 31.060992-2.388992 46.08 7.168 0 0 139.264 86.016 139.264 86.016 15.019008 9.556992 25.259008 11.604992 30.72 6.144 5.460992-5.460992 5.460992-16.384 0-32.768 0 0-61.44-174.08-61.44-174.08-6.827008-15.019008-6.144-29.012992 2.048-41.984 8.192-12.971008 21.163008-20.139008 38.912-21.504 0 0 116.736-12.288 116.736-12.288 17.748992-1.364992 27.988992-6.827008 30.72-16.384 2.731008-9.556992-2.731008-19.796992-16.384-30.72 0 0-88.064-77.824-88.064-77.824-12.288-10.923008-18.432-24.916992-18.432-41.984 0-17.067008 6.144-31.060992 18.432-41.984 0 0 88.064-77.824 88.064-77.824m-393.216-94.208c0 0 0 106.496 0 106.496 0 0-102.4 0-102.4 0 0 0 0-106.496 0-106.496 0 0 102.4 0 102.4 0 0 0 0 0 0 0m0 163.84c0 0 0 266.24 0 266.24 0 0-102.4 0-102.4 0 0 0 0-266.24 0-266.24 0 0 102.4 0 102.4 0 0 0 0 0 0 0"  horiz-adv-x="1024" />

    
    <glyph glyph-name="shiwudaxiao" unicode="&#58922;" d="M606.765829 184.542272l0-36.412304 32.100092 0 0-36.414351 64.201208 0 0 36.414351-32.100092 0 0 36.412304-32.101115 0 0 36.413328-96.3013 0 0-36.413328L606.765829 184.542272zM382.061091 475.847871l256.80483 0 0-36.413328 64.201208 0 0 72.827679L542.564621 512.262222l0 36.412304-64.201208 0 0-36.412304L317.859883 512.262222l0-72.827679 64.202231 0L382.062114 475.847871zM863.571682 767.154493 157.356352 767.154493c-17.727757 0-32.102139-16.287965-32.102139-36.412304l0-691.851181c0-20.129456 14.373359-36.412304 32.102139-36.412304L863.571682 2.478703c17.742083 0 32.100092 16.282848 32.100092 36.412304L895.671775 730.741165C895.671775 750.866528 881.313765 767.154493 863.571682 767.154493zM831.470567 75.303312 189.457468 75.303312 189.457468 585.087854 831.470567 585.087854 831.470567 75.303312zM414.161183 148.129968l64.202231 0 0 36.412304 32.100092 0 0 36.413328 32.101115 0 0 36.414351 160.503531 0 0 36.413328L574.665737 293.783279 574.665737 439.434543l-64.202231 0 0-36.412304-32.100092 0 0 36.412304-64.202231 0 0-36.412304 32.100092 0 0-36.414351 64.201208 0 0-72.824609-32.100092 0 0 36.412304-32.102139 0 0 36.412304-64.200184 0 0-36.412304 32.100092 0 0-36.412304-96.302323 0 0-36.413328 160.504554 0 0-36.414351-32.102139 0 0-36.413328-64.200184 0 0-36.412304-64.202231 0 0-36.414351 96.302323 0L414.160159 148.129968z"  horiz-adv-x="1024" />

    
    <glyph glyph-name="switch" unicode="&#58885;" d="M674.906765 418.639938 342.327134 418.639938c-110.199845 0-199.542662 93.052303-199.542662 207.814046S232.126266 834.269054 342.327134 834.269054l332.579631 0c110.198821 0 199.541639-93.052303 199.541639-207.814046S785.10661 418.639938 674.906765 418.639938zM674.906765 799.642418 342.327134 799.642418c-91.842755 0-166.289304-77.552284-166.289304-173.187411s74.446549-173.187411 166.289304-173.187411l332.579631 0c91.841731 0 166.289304 77.552284 166.289304 173.187411S766.748497 799.642418 674.906765 799.642418zM342.327134 487.948467c-73.458035 0-133.036969 61.998029-133.036969 138.506541s59.579957 138.560776 133.036969 138.560776 133.036969-62.053288 133.036969-138.560776S415.784146 487.948467 342.327134 487.948467zM342.327134 349.388714l332.579631 0c110.198821 0 199.541639-93.053326 199.541639-207.815069 0-114.734114-89.342818-207.840652-199.541639-207.840652L342.327134-66.267007c-110.199845 0-199.542662 93.106538-199.542662 207.840652C142.784472 256.335389 232.126266 349.388714 342.327134 349.388714zM674.906765 2.98524c73.457012 0 133.00934 62.107523 133.00934 138.588405 0 76.508511-59.552328 138.561799-133.00934 138.561799-73.486688 0-133.037992-62.054311-133.037992-138.561799C541.868773 65.092763 601.4211 2.98524 674.906765 2.98524z"  horiz-adv-x="1024" />

    
    <glyph glyph-name="pagination" unicode="&#58916;" d="M877.714286 310.857143 877.714286-54.857143 146.285714-54.857143 146.285714 310.857143 877.714286 310.857143ZM146.285714 822.857143 877.714286 822.857143 877.714286 457.142857 146.285714 457.142857 146.285714 822.857143ZM73.142857 896 73.142857-128 950.857143-128 950.857143 310.857143 950.857143 457.142857 950.857143 896 73.142857 896ZM219.428571 91.428571 219.428571 18.285714 804.571429 18.285714 804.571429 91.428571 219.428571 91.428571ZM365.714286 237.714286 365.714286 164.571429 804.571429 164.571429 804.571429 237.714286 365.714286 237.714286ZM219.428571 603.428571 219.428571 530.285714 438.857143 530.285714 438.857143 603.428571 219.428571 603.428571ZM219.428571 749.714286 219.428571 676.571429 804.571429 676.571429 804.571429 749.714286 219.428571 749.714286Z"  horiz-adv-x="1024" />

    
    <glyph glyph-name="popup" unicode="&#58911;" d="M910.124992 895.5 378.375002 895.25c-80.48855 0-121.624998-36.331334-121.624998-107.463254L256.875002 675 895.374976 676.124998 895.500032 192c75.110016 0 127.11488 65.46855 127.62496 137l-0.6272 458.786746c0 63.188175-38.011648 107.713254-112.3728 107.713254zm-253-320l-531.874995-0.37504c-74.782181 0-121.624997-44.225562-121.624997-134.749997 0.413018-195.456435-0.830379-262.951347 0.624998-458.375027 0-72.662976 51.386092-109.124992 136.875-109.124992l519.75001 0.6272c75.706624 0 109.249984 50.947136 109.249984 136.749952L769.374912 466.002138C769.26432 533.202182 721.18528 575.5 657.124992 575.5ZM131.375002 320l510.874982 0 0-320-510.874982 0z"  horiz-adv-x="1024" />

    
    <glyph glyph-name="popup1" unicode="&#58886;" d="M551.384615 896 551.384615 265.846154 1102.769231 265.846154 1102.769231 896 551.384615 896ZM1024 344.615385 630.153846 344.615385 630.153846 738.461538 1024 738.461538 1024 344.615385ZM866.461538 187.076923 866.461538-49.230769 78.769231-49.230769 78.769231 580.923077 472.615385 580.923077 472.615385 738.461538 0 738.461538 0-128 945.230769-128 945.230769 187.076923 866.461538 187.076923Z"  horiz-adv-x="1103" />

    
    <glyph glyph-name="icon8" unicode="&#58918;" d="M0.020978 768.950396l641.187291 0 0-127.395482-641.187291 0 0 127.395482ZM0.020978 511.395482l641.187291 0 0-127.395482-641.187291 0 0 127.395482ZM0.020978 256.087749l641.187291 0 0-127.395482-641.187291 0 0 127.395482ZM831.596434 257.554146 642.224412 511.395482 1023.977999 511.395482Z"  horiz-adv-x="1024" />

    
    <glyph glyph-name="button" unicode="&#58907;" d="M781.956 431.108c-13.305 0-25.945-3.016-37.237-8.362-6.26 41.908-42.475 74.159-86.083 74.159-13.488 0-26.283-3.092-37.715-8.592-7.382 40.581-42.954 71.405-85.613 71.405-12.957 0-25.215-2.863-36.237-7.916l0 22.795c51.086 30 85.461 85.444 85.461 148.813C584.544 818.607 507.108 896 411.946 896c-95.174 0-172.601-77.393-172.601-172.599 0-63.414 34.416-118.811 85.496-148.797L324.841 413.1l-2.233 5.247c-13.491 32.785-45.088 53.984-80.574 53.984-11.366 0-22.494-2.221-33.077-6.566-44.436-18.227-65.699-69.248-47.418-113.64l126.14-306.742 0.653-1.437C340.04-62.095 445.404-128 563.301-128c168.569 0 305.717 137.137 305.717 305.761L869.018 344.014C869.041 392.03 829.976 431.108 781.956 431.108zM290.215 723.411c0 67.116 54.594 121.752 121.731 121.752 67.136 0 121.74-54.637 121.74-121.752 0-32.973-13.225-62.849-34.614-84.762l0 85.088c0 48.028-39.111 87.126-87.126 87.126-48.028 0-87.105-39.098-87.105-87.126l0-85.129C303.446 660.521 290.215 690.417 290.215 723.411zM818.182 177.773l-0.023 0c0-140.566-114.282-254.893-254.836-254.893-98.047 0-185.665 54.637-228.901 142.636l-125.868 305.89c-3.681 8.994-3.638 18.849 0.076 27.788 3.713 8.917 10.714 15.886 19.675 19.556 4.42 1.816 9.048 2.766 13.751 2.766 14.776 0 27.917-8.842 33.634-22.757l100.04-236.077L375.73 723.738c0 20.013 16.257 36.268 36.237 36.268s36.246-16.255 36.246-36.268l0-381.183c0-14.024 11.378-25.394 25.424-25.394 14.057 0 25.458 11.368 25.458 25.394L499.095 472.603c0 20 16.223 36.234 36.237 36.234 19.945 0 36.234-16.224 36.234-36.234l0-174.886c0-14.068 11.347-25.435 25.402-25.435 14.057 0 25.403 11.366 25.403 25.435L622.371 409.811c0 19.97 16.3 36.236 36.29 36.236 19.947 0 36.203-16.256 36.203-36.236L694.864 252.88l0.055 0c0-0.043-0.031-0.142-0.031-0.208 0-14.023 11.367-25.402 25.445-25.402 14.023 0 25.402 11.379 25.402 25.402 0 0.066 0 0.165 0 0.208l0 91.134c0 19.989 16.266 36.245 36.248 36.245 20.013 0 36.203-16.256 36.203-36.245l0-166.24L818.182 177.774z"  horiz-adv-x="1024" />

    
    <glyph glyph-name="love" unicode="&#58935;" d="M318.769091 787.635967c-141.277654 0-256.206196-114.935706-256.206196-256.209266 0-327.70153 434.320826-541.213345 438.708763-543.15865 3.823072-1.911536 8.562003-3.314489 11.008728-3.314489 2.448772 0 7.189749 1.402953 10.774391 3.204995 4.622274 2.054799 438.942077 215.561497 438.942077 543.268144 0 141.273561-114.926496 256.209266-256.205173 256.209266-72.751954 0-141.767817-30.432103-189.341323-83.510996l-4.096295-4.562922-4.170996 4.489244C458.860732 757.172141 389.825426 787.635967 318.769091 787.635967L318.769091 787.635967z"  horiz-adv-x="1024" />

    
    <glyph glyph-name="x" unicode="&#58881;" d="M584.160845 384.776106 1008.511985-39.984409C1028.503123-60.009661 1028.503123-92.486732 1008.511985-112.477871 988.520847-132.503123 956.07789-132.503123 936.086752-112.477871L511.735612 312.316759 87.384472-112.477871C67.393334-132.503123 34.984492-132.503123 14.993354-112.477871-4.997785-92.486732-4.997785-60.009661 14.993354-39.984409L439.344494 384.776106 16.050905 808.513184C-3.940233 828.538437-3.940233 860.981394 16.050905 881.006646 36.042044 900.997785 68.485 900.997785 88.476138 881.006646L511.735612 457.269568 935.029201 881.006646C955.020339 900.997785 987.429181 900.997785 1007.454433 881.006646 1027.445572 860.981394 1027.445572 828.538437 1007.454433 808.513184L584.160845 384.776106Z"  horiz-adv-x="1024" />

    
    <glyph glyph-name="form" unicode="&#58900;" d="M512.159124 770.841465c-27.216875 0-49.308009-22.092158-49.308009-49.309032l98.214882 1.607614C559.307957 750.806153 538.018072 770.841465 512.159124 770.841465L512.159124 770.841465 512.159124 770.841465zM350.02649 662.330076c-16.774035 0-30.484292 13.658068-30.484292 30.478152 0 16.821107 13.710256 30.483268 30.484292 30.483268l52.118008 0c2.560312 61.810764 50.915623 108.506273 110.015649 108.506273 60.20315 0 109.260449-48.505737 110.217241-108.506273l51.919487 0c16.821107 0 30.426987-13.662161 30.426987-30.483268 0-16.821107-13.606903-30.478152-30.426987-30.478152L350.02649 662.330076 350.02649 662.330076zM306.890041 462.537727c-16.821107 0-30.479175 13.706163-30.479175 30.526247 0 16.774035 13.658068 30.43108 30.479175 30.43108l410.637428 0c16.769942 0 30.426987-13.658068 30.426987-30.43108 0-16.820084-13.658068-30.526247-30.426987-30.526247L306.890041 462.537727 306.890041 462.537727zM306.890041 287.045831c-16.821107 0-30.479175 13.658068-30.479175 30.478152s13.658068 30.426987 30.479175 30.426987l410.637428 0c16.769942 0 30.426987-13.606903 30.426987-30.426987s-13.658068-30.478152-30.426987-30.478152L306.890041 287.045831 306.890041 287.045831zM306.890041 111.552911c-16.821107 0-30.479175 13.658068-30.479175 30.478152s13.658068 30.43108 30.479175 30.43108l410.637428 0c16.769942 0 30.426987-13.610996 30.426987-30.43108s-13.658068-30.478152-30.426987-30.478152L306.890041 111.552911 306.890041 111.552911zM151.885757-63.935915c-28.070312 0-50.864458 22.794146-50.864458 50.811246L101.0213 673.630447c0 28.117384 22.794146 50.915623 50.864458 50.915623l105.498776 0c16.821107 0 30.526247-13.658068 30.526247-30.43108 0-16.821107-13.706163-30.526247-30.526247-30.526247l-95.457072 0 0-666.769946 700.512445 0L862.439906 663.536554l-93.845365 0c-16.768919 0-30.379914 13.709233-30.379914 30.53034s13.610996 30.479175 30.379914 30.479175L872.433514 724.54607c28.0171 0 50.815339-22.798239 50.862411-50.915623l0-686.755116c0-28.0171-22.747073-50.811246-50.764174-50.811246L151.885757-63.935915 151.885757-63.935915zM151.885757-63.935915"  horiz-adv-x="1024" />

    
    <glyph glyph-name="zhuce" unicode="&#58893;" d="M792.77936-88.843188c-31.732725 0-61.761646 6.0416-90.095971 18.134009-28.333302 12.088316-53.079916 28.708855-74.233702 49.865711-21.151739 21.155832-37.773302 45.89733-49.864688 74.229608-12.087293 28.333302-18.134009 58.362222-18.134009 90.099041 0 31.732725 6.046716 61.761646 18.134009 90.094948 12.090363 28.333302 28.713972 52.892651 49.864688 73.66372 21.153786 20.780279 45.899376 37.214577 74.233702 49.300846 28.333302 12.091386 58.363246 18.136056 90.095971 18.136056 31.734772 0 61.764716-6.043646 90.098018-18.136056 28.333302-12.08627 52.887534-28.520567 73.664743-49.300846 20.779256-20.774139 37.20946-45.333488 49.299823-73.66372 12.087293-28.333302 18.137079-58.362222 18.137079-90.094948 0-31.736818-6.049786-61.765739-18.137079-90.099041-12.088316-28.334325-28.520567-53.073776-49.299823-74.229608-20.780279-21.157879-45.332465-37.778418-73.664743-49.865711C854.545098-82.801589 824.514131-88.843188 792.77936-88.843188L792.77936-88.843188zM907.244344 180.881906l-83.865059 0 0 78.196966c0 10.580986-3.39533 19.644409-10.19827 27.203572-6.800893 7.553023-15.489786 11.332093-26.069749 11.332093-10.574846 0-18.886139-3.77907-24.928762-11.332093-6.042623-7.559163-9.06854-16.622586-9.06854-27.203572l0-78.196966-73.664743 0c-10.574846 0-19.640316-3.773953-27.197432-11.334139-7.55507-7.553023-11.333116-16.622586-11.333116-27.197432s3.778046-18.511609 11.333116-23.802102c7.557116-5.288446 16.622586-7.928576 27.197432-7.928576l73.664743 0 0-80.465636c0-10.580986 3.025916-19.644409 9.06854-27.199479 6.042623-7.559163 14.353916-11.332093 24.928762-11.332093 10.579963 0 19.266809 3.773953 26.069749 11.332093 6.800893 7.55507 10.19827 16.618493 10.19827 27.199479l0 80.465636 83.865059 0 0-2.26867c10.578939 0 19.643386 3.019777 27.198455 9.063423 7.559163 6.04774 11.332093 14.360056 11.332093 24.934902s-3.773953 19.644409-11.332093 27.197432C926.888753 177.107953 917.823284 180.881906 907.244344 180.881906L907.244344 180.881906zM627.32098 463.072917c-3.022847-12.085246-6.048763-23.041786-9.069563-32.864502-3.0208-8.311293-6.800893-16.810874-11.332093-25.498744-4.53427-8.686846-9.44307-15.300474-14.731516-19.832697-6.800893-5.28947-11.522428-10.956539-14.167674-17.000186-2.644223-6.0416-4.91494-12.271488-6.800893-18.696828-1.886977-6.423293-3.966335-13.030781-6.229888-19.832697-2.270716-6.800893-6.048763-13.600763-11.332093-20.398586-17.382902-22.664186-30.41573-44.578288-39.1036-65.733097s-14.731516-41.553395-18.132986-61.200874c-3.3984-19.642362-4.344958-39.101553-2.835581-58.362222 1.512447-19.268856 4.533246-37.968753 9.069563-56.099692 3.021823-13.596669 7.554046-27.76332 13.596669-42.49893 6.04774-14.730493 14.924921-29.843702 26.631544-45.333488 11.710716-15.487739 26.63359-30.594809 44.769646-45.331441 18.129916-14.731516 40.794102-28.89612 67.997674-42.49893-18.135032-3.774977-39.290865-7.17747-63.466474-10.199293-20.402679-2.270716-45.520753-4.342912-75.362408-6.229888-29.844725-1.895163-64.036455-2.835581-102.56598-2.835581-19.646456 0-42.49893 0.753153-68.564585 2.264577-26.068725 1.511423-52.885488 3.40147-80.465636 5.666046-27.574009 2.26867-54.778604 4.912893-81.598436 7.934716-26.816762 3.021823-51.376111 6.231935-73.664743 9.633405-22.285562 3.397377-41.177841 6.989181-56.665581 10.766205-15.483646 3.777023-25.119097 7.17747-28.898167 10.197246-6.79987 6.049786-12.085246 22.86066-15.864316 50.435693-3.77907 27.570939-2.645247 63.652715 3.3984 108.228957 3.778046 24.932856 13.789051 44.008306 30.03199 57.235562 16.244986 13.219069 35.32146 23.605627 57.235562 31.16479 21.906939 7.55507 44.763506 14.544251 68.563562 20.967544 23.799032 6.4192 44.7676 15.295358 62.901609 26.627451 14.354939 9.067516 25.310456 17.570167 32.864502 25.50079 7.553023 7.934716 12.842493 16.054651 15.864316 24.367991 3.021823 8.306176 4.533246 17.000186 4.533246 26.064632 0 9.06547-0.376577 18.887163-1.1328 29.468149-1.51347 15.865339-6.984065 28.333302-16.431228 37.396725-9.445116 9.069563-19.456121 18.136056-30.03199 27.199479-6.048763 4.53734-11.333116 11.33107-15.869433 20.401656-4.533246 9.063423-8.3072 17.752316-11.333116 26.062586-3.773953 9.82374-6.7968 20.779256-9.06547 32.864502-5.28947 1.511423-10.19827 3.77907-14.730493 6.800893-3.77907 3.021823-7.93574 7.559163-12.468986 13.602809-4.532223 6.0416-8.68787 15.107069-12.467963 27.198455-3.77907 11.333116-5.101181 21.907962-3.966335 31.729655 1.131777 9.82374 3.214205 18.134009 6.236028 24.935925 3.021823 8.311293 7.176446 15.489786 12.462846 21.531386 0 25.688055 1.515516 51.376111 4.538363 77.069283 3.021823 21.906939 7.741311 45.332465 14.166651 70.260204 6.4192 24.935925 16.810874 47.224558 31.165814 66.86385 13.596669 18.892279 28.14399 34.382065 43.62866 46.466288 15.488763 12.091386 31.546483 21.532409 48.164976 28.333302 16.621563 6.801916 33.244148 11.521404 49.867758 14.166651C383.279848 894.676865 399.149281 896 414.25942 896 433.902806 896 452.788945 893.730307 470.923978 889.198084c18.132986-4.5312 34.942837-10.574846 50.432623-18.134009 15.491833-7.553023 29.278837-16.053628 41.365106-25.498744 12.090363-9.441023 21.913079-19.073404 29.468149-28.89612 17.375739-21.908986 30.030967-46.090734 37.968753-72.529897 7.9296-26.446325 13.782911-51.376111 17.561981-74.79959 3.77907-27.198455 5.291516-54.395888 4.53427-81.601506 4.533246-3.773953 8.311293-8.306176 11.332093-13.595646 3.019777-4.532223 5.290493-10.580986 6.800893-18.134009 1.512447-7.553023 1.512447-16.999163 0-28.333302-1.511423-14.354939-4.53427-25.688055-9.0624-33.999348-4.538363-8.312316-9.445116-14.730493-14.736633-19.268856C640.541073 469.12168 634.116757 465.34261 627.32098 463.072917L627.32098 463.072917z"  horiz-adv-x="1024" />

    
    <glyph glyph-name="cainixihuan" unicode="&#58892;" d="M511.831154-64.037223c-246.863411 0-447.698508 200.838168-447.698508 447.698508S264.967744 831.356724 511.831154 831.356724s447.698508-200.835098 447.698508-447.695438S758.694565-64.037223 511.831154-64.037223zM511.831154 781.381519c-219.307821 0-397.723304-178.415482-397.723304-397.720234S292.523333-14.062018 511.831154-14.062018s397.723304 178.418552 397.723304 397.723304S731.138976 781.381519 511.831154 781.381519zM511.825015 193.571926c-67.288522 0-132.881426 23.548322-184.699606 66.303079-10.645454 8.785084-12.151761 24.532743-3.367701 35.178197 8.791224 10.642384 24.541953 12.142551 35.175127 3.370771 42.886763-35.388998 97.181343-54.876842 152.891156-54.876842 55.715953 0 110.016673 19.490913 152.903435 54.882981 10.645454 8.782014 26.391067 7.277754 35.175127-3.367701 8.785084-10.642384 7.277754-26.394137-3.367701-35.175127C644.718721 217.123318 579.119677 193.571926 511.825015 193.571926zM343.975169 397.195533c-13.799284 0-24.988114 11.18883-24.988114 24.988114l0 67.575048c0 13.799284 11.18883 24.988114 24.988114 24.988114s24.988114-11.18883 24.988114-24.988114l0-67.575048C368.963283 408.38334 357.774453 397.195533 343.975169 397.195533zM679.681 397.195533c-13.799284 0-24.988114 11.18883-24.988114 24.988114l0 67.575048c0 13.799284 11.187807 24.988114 24.988114 24.988114s24.988114-11.18883 24.988114-24.988114l0-67.575048C704.668091 408.38334 693.480284 397.195533 679.681 397.195533z"  horiz-adv-x="1024" />

    
    <glyph glyph-name="tooltip" unicode="&#58923;" d="M170.666667 810.666667 853.333333 810.666667C900.266667 810.666667 938.666667 772.266667 938.666667 725.333333L938.666667 213.333333C938.666667 166.4 900.266667 128 853.333333 128L682.666667 128 512-42.666667 341.333333 128 170.666667 128C123.733333 128 85.333333 166.4 85.333333 213.333333L85.333333 725.333333C85.333333 772.266667 123.733333 810.666667 170.666667 810.666667Z"  horiz-adv-x="1024" />

    
    <glyph glyph-name="viewcarousel" unicode="&#58888;" d="M768 640 768 170.666667 938.666667 170.666667 938.666667 640M85.333333 170.666667 256 170.666667 256 640 85.333333 640M298.666667 85.333333 725.333333 85.333333 725.333333 725.333333 298.666667 725.333333 298.666667 85.333333Z"  horiz-adv-x="1024" />

    
    <glyph glyph-name="1414fenyekongjian" unicode="&#58924;" d="M453.361485 416.402991l0-99.812263c0-0.63752-0.337691-1.255597-0.934279-1.586125-0.597611-0.330528-1.300622-0.288572-1.839905 0.050142l-79.608106 49.90562c-0.51063 0.320295-0.850367 0.889253-0.850367 1.535983 0 0.64673 0.338714 1.215688 0.850367 1.535983l79.608106 49.90562c0.540306 0.338714 1.242294 0.38067 1.839905 0.050142C453.023794 417.658587 453.361485 417.040511 453.361485 416.402991L453.361485 416.402991 453.361485 416.402991zM453.361485 416.402991M565.429887 316.475094l0 99.812263c0 0.63752 0.337691 1.255597 0.934279 1.586125 0.597611 0.330528 1.300622 0.288572 1.839905-0.050142l79.608106-49.90562c0.51063-0.320295 0.850367-0.889253 0.850367-1.535983 0-0.64673-0.338714-1.215688-0.850367-1.535983l-79.608106-49.90562c-0.540306-0.338714-1.242294-0.38067-1.839905-0.050142C565.767578 315.219497 565.429887 315.837574 565.429887 316.475094L565.429887 316.475094 565.429887 316.475094zM565.429887 316.475094M846.263993 437.874001c0 0.648776 0.248663 1.298576 0.743944 1.793856 0.49528 0.49528 1.144056 0.74292 1.793856 0.74292l25.031093 0c0.648776 0 1.298576-0.24764 1.793856-0.74292 0.496304-0.496304 0.743944-1.14508 0.743944-1.793856l0-142.911874c0-0.648776-0.24764-1.298576-0.743944-1.793856-0.49528-0.49528-1.144056-0.743944-1.793856-0.743944l-25.031093 0c-0.649799 0-1.298576 0.24764-1.793856 0.743944-0.49528 0.49528-0.743944 1.144056-0.743944 1.793856L846.263993 437.874001 846.263993 437.874001zM846.263993 437.874001M728.383212 297.0026c0-0.892323 0.471744-1.755993 1.307785-2.218528 0.835018-0.462534 1.818415-0.405229 2.574638 0.067538l111.074771 69.428256c0.716314 0.447185 1.192152 1.243317 1.192152 2.15099 0 0.907673-0.475837 1.702782-1.192152 2.152013l-111.074771 69.428256c-0.7552 0.472767-1.739621 0.531096-2.574638 0.067538-0.836041-0.462534-1.307785-1.327228-1.307785-2.219551L728.383212 297.0026 728.383212 297.0026zM728.383212 297.0026M172.527378 295.004083c0-0.648776-0.248663-1.298576-0.743944-1.793856-0.49528-0.49528-1.144056-0.74292-1.793856-0.74292l-25.031093 0c-0.648776 0-1.298576 0.24764-1.793856 0.74292-0.496304 0.496304-0.743944 1.14508-0.743944 1.793856L142.420687 437.915957c0 0.648776 0.24764 1.298576 0.743944 1.793856 0.49528 0.49528 1.144056 0.743944 1.793856 0.743944l25.031093 0c0.649799 0 1.298576-0.24764 1.793856-0.743944 0.49528-0.49528 0.743944-1.144056 0.743944-1.793856L172.527378 295.004083 172.527378 295.004083zM172.527378 295.004083M290.408159 435.875484c0 0.892323-0.471744 1.755993-1.306762 2.218528-0.835018 0.462534-1.818415 0.405229-2.574638-0.067538l-111.074771-69.428256c-0.716314-0.447185-1.192152-1.243317-1.192152-2.15099 0-0.907673 0.475837-1.702782 1.192152-2.152013l111.074771-69.428256c0.7552-0.472767 1.739621-0.530073 2.574638-0.067538 0.835018 0.462534 1.306762 1.327228 1.306762 2.219551L290.408159 435.875484 290.408159 435.875484zM290.408159 435.875484"  horiz-adv-x="1024" />

    
    <glyph glyph-name="pingjia" unicode="&#58925;" d="M796.262 426.255h-174.363c-15.314 0-29.053 9.162-34.972 23.344-5.895 14.23-2.66 30.434 8.163 41.309 22.369 22.369 21.679 79.068 15.662 113.005-21.211 39.669-42.619 42.791-48.735 42.791-5.697-1.924-11.984-15.021-14.551-24.355-0.517-115.185-118.847-187.632-123.903-190.679-2.417-1.455-4.985-2.626-7.646-3.502v-258.267h320.415c8.114 0 12.182 4.044 12.602 5.183-0.075 2.271 0.271 5.227 0.934 8.163l57.981 239.152c-1.675 1.566-5.474 3.859-11.59 3.859zM317.663 426.255h47.893v-256.355h-47.893v256.355zM512.693 869.19c-268.475 0-486.146-217.659-486.146-486.146 0-268.49 217.67-486.16 486.146-486.16 268.524 0 486.146 217.67 486.146 486.16 0.001 268.486-217.62 486.146-486.146 486.146zM799.345 172.859c-0.988-29.644-28.878-53.469-63.011-53.469h-469.178v357.372h133.177c16.45 10.827 98.626 69.068 96.578 149.356l-0.023 1.318 0.222 1.282c0.42 2.257 10.653 55.358 53.37 67.317 1.259 0.308 5.278 1.171 11.539 1.171 17.609 0 62.249-7.314 96.186-75.087l1.060-3.023c0.837-3.982 18.078-87.035-12.407-142.34h149.403c34.751 0 63.040-24.714 63.040-55.094l-0.347-2.973-59.609-245.834z"  horiz-adv-x="1024" />

    
    <glyph glyph-name="ceshiyong" unicode="&#58894;" d="M397.757733 144.612638c54.585771 0.419576 61.384943 13.582995 79.173928 68.376507 32.822074 86.493989 180.606858-22.635596 89.0227-60.516115C474.368156 114.573067 343.164798 144.191016 397.757733 144.612638zM957.50749 714.595949c-26.507972 21.344121-70.371026 10.833239-98.020039-23.476794L579.417623 293.234526c-27.664363-34.298776-27.518024-27.748279-1.024379-49.075003 26.493645-21.342074 20.104838-22.881201 47.757944 11.420645l329.234886 358.244962C983.036111 648.148466 983.980668 693.264108 957.50749 714.595949zM885.495002 666.978204c0 0-4.108771 4.760649-17.748051 15.670639 20.453802 33.408457 60.670641 27.277535 60.670641 27.277535C890.267931 687.422796 885.495002 666.978204 885.495002 666.978204zM778.005856 376.510063 778.005856 0.967327 184.697209 0.967327 184.697209 744.529091 778.005856 744.529091 778.005856 634.570589 835.795753 716.67336 835.795753 802.32001 126.907312 802.32001 126.907312-56.82257 835.795753-56.82257 835.795753 439.393198ZM474.031472 364.201145c-9.974644 0-18.391741-3.432334-25.306553-10.331795-6.896391-6.896391-10.346122-15.267438-10.346122-25.094718 0-11.236441 3.611421-19.995339 10.799468-26.228596 7.205445-6.299775 15.658359-9.406682 25.32395-9.406682 9.504924 0 17.843223 3.156028 24.965776 9.503901 7.15837 6.314102 10.72067 15.05765 10.72067 26.131377 0 9.843654-3.546949 18.198327-10.590704 25.094718C492.555226 360.750391 484.005093 364.201145 474.031472 364.201145zM448.093509 449.542836c1.456235-14.733246 3.837582-25.711802 7.1553-32.93362 3.336138-7.205445 9.278762-10.814819 17.827872-10.814819 8.403794 0 14.425216 3.725013 18.069384 11.188343 3.625748 7.446956 6.03882 18.133856 7.121529 32.089352l10.236623 117.207951c1.114434 10.766721 1.682396 21.388125 1.668069 31.84784 0 17.743957-2.3179 31.345372-6.915835 40.767405-4.596912 9.424079-13.715008 14.15198-27.331773 14.15198-11.250768 0-20.335093-3.70864-27.231484-11.059401-6.864667-7.350761-10.329748-17.631388-10.329748-30.794807 0-9.665591 0.713279-25.599232 2.137789-47.778412L448.093509 449.542836z"  horiz-adv-x="1024" />

    
    <glyph glyph-name="formidcard" unicode="&#58895;" d="M128 640 896 640 896 128 128 128 128 640ZM64 704 64 64 960 64 960 704 64 704ZM576 256 576 192 832 192 832 256 576 256ZM576 352 576 288 832 288 832 352 576 352ZM576 448 576 384 832 384 832 448 576 448ZM576 544 576 480 768 480 768 544 576 544ZM512 192C512 298.0416 440.3648 384 352 384 263.6352 384 192 298.0416 192 192L512 192ZM288 480C288 444.6528 316.6528 416 352 416 387.3472 416 416 444.6528 416 480 416 515.3472 387.3472 544 352 544 316.6528 544 288 515.3472 288 480Z"  horiz-adv-x="1024" />

    
    <glyph glyph-name="chakantupianfangdajing" unicode="&#58931;" d="M652.424556 507.810947 546.80594 507.810947 546.80594 613.988893c0 29.344159-23.667213 53.089981-52.807796 53.089981-29.183919 0-52.808804-23.745821-52.808804-53.089981l0-106.177946-105.617608 0c-29.182911 0-52.808804-23.744814-52.808804-53.088973 0-29.241364 23.625893-53.089981 52.808804-53.089981l105.617608 0 0-106.177946c0-29.240356 23.624885-53.089981 52.808804-53.089981 29.140583 0 52.807796 23.849625 52.807796 53.089981L546.80594 401.631993l105.618616 0c29.140583 0 52.807796 23.848617 52.807796 53.089981C705.232352 484.066133 681.56514 507.810947 652.424556 507.810947zM906.10636-12.920143 786.822963 148.7655c79.372439 77.292336 128.723476 185.664266 128.723476 305.645063 0 234.754282-188.907372 425.129013-422.009867 425.129013-233.101488 0-422.058242-190.374731-422.058242-425.129013 0-234.754282 188.956754-425.080639 422.058242-425.080639 56.261532 0 109.947124 11.089849 159.024039 31.213631l122.966913-166.680307c17.431944-23.642018 51.056237-28.874524 75.087266-11.717709l43.525944 31.106804C918.172769-69.638209 923.535281-36.56216 906.10636-12.920143zM493.536571 135.355692c-175.135763 0-317.163227 142.885104-317.163227 319.103246 0 176.223181 142.026457 319.108285 317.163227 319.108285 175.239566 0 317.266023-142.885104 317.266023-319.108285C810.801586 278.241803 668.775129 135.355692 493.536571 135.355692z"  horiz-adv-x="1024" />

    
    <glyph glyph-name="sort" unicode="&#58905;" d="M541.538462 580.923077c11.815385 11.815385 11.815385 29.538462 0 41.353846l-224.492308 226.461538c-11.815385 11.815385-29.538462 11.815385-41.353846 0l-226.461538-226.461538c-11.815385-11.815385-11.815385-29.538462 0-41.353846l41.353846-41.353846c11.815385-11.815385 29.538462-11.815385 41.353846 0l70.892308 70.892308c11.815385 11.815385 33.476923 3.938462 33.476923-13.784615l0-417.476923c0-15.753846 13.784615-29.538462 29.538462-29.538462l59.076923 0c15.753846 0 29.538462 15.753846 29.538462 29.538462l0 417.476923c0 17.723077 21.661538 25.6 33.476923 13.784615l70.892308-70.892308c11.815385-11.815385 29.538462-11.815385 41.353846 0l41.353846 41.353846zm433.230769-393.846154l-41.353846 39.384615c-11.815385 11.815385-29.538462 11.815385-41.353846 0l-70.892308-70.892308c-11.815385-11.815385-33.476923-3.938462-33.476923 13.784615l0 421.415385c0 15.753846-13.784615 29.538462-29.538462 29.538462l-59.076923 0c-15.753846 0-29.538462-15.753846-29.538462-29.538462l0-417.476923c0-17.723077-21.661538-25.6-33.476923-13.784615l-70.892308 70.892308c-11.815385 11.815385-29.538462 11.815385-41.353846 0l-41.353846-43.323077c-11.815385-11.815385-11.815385-29.538462 0-41.353846l226.461538-226.461538c11.815385-11.815385 29.538462-11.815385 41.353846 0l226.461538 226.461538c9.846154 11.815385 9.846154 31.507692-1.969231 41.353846z"  horiz-adv-x="1024" />

    
    <glyph glyph-name="fenxi" unicode="&#58912;" d="M810.666667 768 213.333333 768C166.4 768 128 729.6 128 682.666667l0-597.333333c0-46.933333 38.4-85.333333 85.333333-85.333333l597.333333 0c46.933333 0 85.333333 38.4 85.333333 85.333333L896 682.666667C896 729.6 857.6 768 810.666667 768zM384 170.666667 298.666667 170.666667l0 298.666667 85.333333 0L384 170.666667zM554.666667 170.666667l-85.333333 0L469.333333 597.333333l85.333333 0L554.666667 170.666667zM725.333333 170.666667l-85.333333 0 0 170.666667 85.333333 0L725.333333 170.666667z"  horiz-adv-x="1024" />

    
    <glyph glyph-name="accordion" unicode="&#58908;" d="M392.533333 861.866667 85.333333 861.866667C38.280533 861.866667 0 823.586133 0 776.533333L0-8.533333C0-55.586133 38.280533-93.866667 85.333333-93.866667L392.533333-93.866667C401.9712-93.866667 409.6-86.2208 409.6-76.8 409.6-67.3792 401.9712-59.733333 392.533333-59.733333L85.333333-59.733333C57.105067-59.733333 34.133333-36.7616 34.133333-8.533333L34.133333 42.666667 119.466667 42.666667C128.904533 42.666667 136.533333 50.312533 136.533333 59.733333 136.533333 69.154133 128.904533 76.8 119.466667 76.8L34.133333 76.8 34.133333 179.2 119.466667 179.2C128.904533 179.2 136.533333 186.845867 136.533333 196.266667 136.533333 205.687467 128.904533 213.333333 119.466667 213.333333L34.133333 213.333333 34.133333 315.733333 392.533333 315.733333C401.9712 315.733333 409.6 323.3792 409.6 332.8 409.6 342.2208 401.9712 349.866667 392.533333 349.866667L34.133333 349.866667 34.133333 452.266667 119.466667 452.266667C128.904533 452.266667 136.533333 459.912533 136.533333 469.333333 136.533333 478.754133 128.904533 486.4 119.466667 486.4L34.133333 486.4 34.133333 588.8 119.466667 588.8C128.904533 588.8 136.533333 596.445867 136.533333 605.866667 136.533333 615.287467 128.904533 622.933333 119.466667 622.933333L34.133333 622.933333 34.133333 725.333333 119.466667 725.333333C128.904533 725.333333 136.533333 732.9792 136.533333 742.4 136.533333 751.8208 128.904533 759.466667 119.466667 759.466667L34.133333 759.466667 34.133333 776.533333C34.133333 804.7616 57.105067 827.733333 85.333333 827.733333L392.533333 827.733333C401.9712 827.733333 409.6 835.3792 409.6 844.8 409.6 854.2208 401.9712 861.866667 392.533333 861.866667M938.666667 861.866667 733.866667 861.866667C724.4288 861.866667 716.8 854.2208 716.8 844.8 716.8 835.3792 724.4288 827.733333 733.866667 827.733333L938.666667 827.733333C966.894933 827.733333 989.866667 804.7616 989.866667 776.533333L989.866667-8.533333C989.866667-36.7616 966.894933-59.733333 938.666667-59.733333L733.866667-59.733333C724.4288-59.733333 716.8-67.3792 716.8-76.8 716.8-86.2208 724.4288-93.866667 733.866667-93.866667L938.666667-93.866667C985.719467-93.866667 1024-55.586133 1024-8.533333L1024 776.533333C1024 823.586133 985.719467 861.866667 938.666667 861.866667M392.533333 759.466667C401.9712 759.466667 409.6 767.112533 409.6 776.533333 409.6 785.954133 401.9712 793.6 392.533333 793.6L187.733333 793.6C178.295467 793.6 170.666667 785.954133 170.666667 776.533333L170.666667 708.266667C170.666667 698.845867 178.295467 691.2 187.733333 691.2L392.533333 691.2C401.9712 691.2 409.6 698.845867 409.6 708.266667 409.6 717.687467 401.9712 725.333333 392.533333 725.333333L204.8 725.333333 204.8 759.466667 392.533333 759.466667M392.533333 622.933333C401.9712 622.933333 409.6 630.5792 409.6 640 409.6 649.4208 401.9712 657.066667 392.533333 657.066667L187.733333 657.066667C178.295467 657.066667 170.666667 649.4208 170.666667 640L170.666667 571.733333C170.666667 562.312533 178.295467 554.666667 187.733333 554.666667L392.533333 554.666667C401.9712 554.666667 409.6 562.312533 409.6 571.733333 409.6 581.154133 401.9712 588.8 392.533333 588.8L204.8 588.8 204.8 622.933333 392.533333 622.933333M392.533333 213.333333C401.9712 213.333333 409.6 220.9792 409.6 230.4 409.6 239.8208 401.9712 247.466667 392.533333 247.466667L187.733333 247.466667C178.295467 247.466667 170.666667 239.8208 170.666667 230.4L170.666667 162.133333C170.666667 152.712533 178.295467 145.066667 187.733333 145.066667L392.533333 145.066667C401.9712 145.066667 409.6 152.712533 409.6 162.133333 409.6 171.554133 401.9712 179.2 392.533333 179.2L204.8 179.2 204.8 213.333333 392.533333 213.333333M392.533333 76.8C401.9712 76.8 409.6 84.445867 409.6 93.866667 409.6 103.287467 401.9712 110.933333 392.533333 110.933333L187.733333 110.933333C178.295467 110.933333 170.666667 103.287467 170.666667 93.866667L170.666667 25.6C170.666667 16.1792 178.295467 8.533333 187.733333 8.533333L392.533333 8.533333C401.9712 8.533333 409.6 16.1792 409.6 25.6 409.6 35.0208 401.9712 42.666667 392.533333 42.666667L204.8 42.666667 204.8 76.8 392.533333 76.8M392.533333 486.4C401.9712 486.4 409.6 494.045867 409.6 503.466667 409.6 512.887467 401.9712 520.533333 392.533333 520.533333L187.733333 520.533333C178.295467 520.533333 170.666667 512.887467 170.666667 503.466667L170.666667 435.2C170.666667 425.7792 178.295467 418.133333 187.733333 418.133333L392.533333 418.133333C401.9712 418.133333 409.6 425.7792 409.6 435.2 409.6 444.6208 401.9712 452.266667 392.533333 452.266667L204.8 452.266667 204.8 486.4 392.533333 486.4M643.5328 890.999467C636.859733 897.672533 626.0736 897.672533 619.400533 890.999467L597.333333 868.932267 575.266133 890.999467C568.593067 897.672533 557.806933 897.672533 551.133867 890.999467L529.066667 868.932267 506.999467 890.999467C500.3264 897.672533 489.540267 897.672533 482.8672 890.999467L448.733867 856.866133C445.5424 853.674667 443.733333 849.322667 443.733333 844.8L443.733333-76.8C443.733333-81.322667 445.5424-85.6576 448.733867-88.866133L482.8672-122.999467C489.540267-129.672533 500.3264-129.672533 506.999467-122.999467L529.066667-100.932267 551.133867-122.999467C557.806933-129.672533 568.593067-129.672533 575.266133-122.999467L597.333333-100.932267 619.400533-122.999467C622.728533-126.327467 627.0976-128 631.466667-128 635.835733-128 640.2048-126.327467 643.5328-122.999467L677.666133-88.866133C680.8576-85.6576 682.666667-81.322667 682.666667-76.8L682.666667 844.8C682.666667 849.322667 680.8576 853.674667 677.666133 856.866133L643.5328 890.999467 643.5328 890.999467ZM512-69.7344 494.933333-86.801067 477.866667-69.7344 477.866667 837.7344 494.933333 854.801067 512 837.7344 512-69.7344 512-69.7344ZM580.266667-69.7344 563.2-86.801067 546.133333-69.7344 546.133333 837.7344 563.2 854.801067 580.266667 837.7344 580.266667-69.7344 580.266667-69.7344ZM648.533333-69.7344 631.466667-86.801067 614.4-69.7344 614.4 837.7344 631.466667 854.801067 648.533333 837.7344 648.533333-69.7344 648.533333-69.7344ZM887.466667 622.933333C906.274133 622.933333 921.6 638.242133 921.6 657.066667 921.6 675.8912 906.274133 691.2 887.466667 691.2 868.6592 691.2 853.333333 675.8912 853.333333 657.066667 853.333333 638.242133 868.6592 622.933333 887.466667 622.933333M785.066667 554.666667C803.874133 554.666667 819.2 569.975467 819.2 588.8 819.2 607.624533 803.874133 622.933333 785.066667 622.933333 766.2592 622.933333 750.933333 607.624533 750.933333 588.8 750.933333 569.975467 766.2592 554.666667 785.066667 554.666667M887.466667 486.4C906.274133 486.4 921.6 501.7088 921.6 520.533333 921.6 539.357867 906.274133 554.666667 887.466667 554.666667 868.6592 554.666667 853.333333 539.357867 853.333333 520.533333 853.333333 501.7088 868.6592 486.4 887.466667 486.4M785.066667 418.133333C803.874133 418.133333 819.2 433.442133 819.2 452.266667 819.2 471.0912 803.874133 486.4 785.066667 486.4 766.2592 486.4 750.933333 471.0912 750.933333 452.266667 750.933333 433.442133 766.2592 418.133333 785.066667 418.133333M887.466667 349.866667C906.274133 349.866667 921.6 365.175467 921.6 384 921.6 402.824533 906.274133 418.133333 887.466667 418.133333 868.6592 418.133333 853.333333 402.824533 853.333333 384 853.333333 365.175467 868.6592 349.866667 887.466667 349.866667M785.066667 281.6C803.874133 281.6 819.2 296.9088 819.2 315.733333 819.2 334.557867 803.874133 349.866667 785.066667 349.866667 766.2592 349.866667 750.933333 334.557867 750.933333 315.733333 750.933333 296.9088 766.2592 281.6 785.066667 281.6M887.466667 213.333333C906.274133 213.333333 921.6 228.642133 921.6 247.466667 921.6 266.2912 906.274133 281.6 887.466667 281.6 868.6592 281.6 853.333333 266.2912 853.333333 247.466667 853.333333 228.642133 868.6592 213.333333 887.466667 213.333333M785.066667 145.066667C803.874133 145.066667 819.2 160.375467 819.2 179.2 819.2 198.024533 803.874133 213.333333 785.066667 213.333333 766.2592 213.333333 750.933333 198.024533 750.933333 179.2 750.933333 160.375467 766.2592 145.066667 785.066667 145.066667M887.466667 76.8C906.274133 76.8 921.6 92.1088 921.6 110.933333 921.6 129.757867 906.274133 145.066667 887.466667 145.066667 868.6592 145.066667 853.333333 129.757867 853.333333 110.933333 853.333333 92.1088 868.6592 76.8 887.466667 76.8M785.066667 8.533333C803.874133 8.533333 819.2 23.842133 819.2 42.666667 819.2 61.4912 803.874133 76.8 785.066667 76.8 766.2592 76.8 750.933333 61.4912 750.933333 42.666667 750.933333 23.842133 766.2592 8.533333 785.066667 8.533333M785.066667 691.2C803.874133 691.2 819.2 706.5088 819.2 725.333333 819.2 744.157867 803.874133 759.466667 785.066667 759.466667 766.2592 759.466667 750.933333 744.157867 750.933333 725.333333 750.933333 706.5088 766.2592 691.2 785.066667 691.2"  horiz-adv-x="1024" />

    
    <glyph glyph-name="25" unicode="&#58889;" d="M310.30303 523.636364 124.121212 523.636364c-17.128727 0-31.030303-13.901576-31.030303-31.030303l0-186.181818c0-17.128727 13.901576-31.030303 31.030303-31.030303l186.181818 0c17.128727 0 31.030303 13.901576 31.030303 31.030303L341.333333 492.606061C341.333333 509.734788 327.431758 523.636364 310.30303 523.636364zM294.787879 306.424242 139.636364 306.424242c-17.128727 0-15.515152-1.613576-15.515152 15.515152L124.121212 477.090909c0 17.128727-1.613576 15.515152 15.515152 15.515152l155.151515 0c17.128727 0 15.515152 1.613576 15.515152-15.515152l0-155.151515C310.30303 304.810667 311.916606 306.424242 294.787879 306.424242zM418.909091 352.969697l480.969697 0 0 31.030303L418.909091 384 418.909091 352.969697zM418.909091 228.848485l480.969697 0 0 31.030303L418.909091 259.878788 418.909091 228.848485zM418.909091 89.212121l480.969697 0 0 31.030303L418.909091 120.242424 418.909091 89.212121zM418.909091 492.606061l480.969697 0 0 31.030303L418.909091 523.636364 418.909091 492.606061zM992.969697 725.333333l-15.515152 0L977.454545 849.454545c0 17.128727-13.901576 31.030303-31.030303 31.030303L775.757576 880.484848c-17.128727 0-31.030303-13.901576-31.030303-31.030303l0-124.121212-139.636364 0L605.090909 849.454545c0 17.128727-13.901576 31.030303-31.030303 31.030303L403.393939 880.484848c-17.128727 0-31.030303-13.901576-31.030303-31.030303l0-124.121212-124.121212 0L248.242424 849.454545c0 17.128727-13.901576 31.030303-31.030303 31.030303L31.030303 880.484848C13.901576 880.484848 0 866.583273 0 849.454545l0-946.424242c0-17.128727 13.901576-31.030303 31.030303-31.030303l961.939394 0c17.128727 0 31.030303 13.901576 31.030303 31.030303L1024 694.30303C1024 711.431758 1010.098424 725.333333 992.969697 725.333333zM992.969697-65.939394c0-17.128727-13.901576-31.030303-31.030303-31.030303L62.060606-96.969697c-17.128727 0-31.030303 13.901576-31.030303 31.030303L31.030303 818.424242c0 17.128727 13.901576 31.030303 31.030303 31.030303l124.121212 0c17.128727 0 31.030303-13.901576 31.030303-31.030303l0-124.121212 744.727273 0c17.128727 0 31.030303-13.901576 31.030303-31.030303L992.969697-65.939394z"  horiz-adv-x="1024" />

    
    <glyph glyph-name="toggledown" unicode="&#58901;" d="M727.428571 510.285714q10.285714-20-2.857143-37.714286l-182.857143-256q-10.857143-15.428571-29.714286-15.428571t-29.714286 15.428571l-182.857143 256q-13.142857 17.714286-2.857143 37.714286 9.714286 20 32.571429 20l365.714286 0q22.857143 0 32.571429-20zm77.142857-400.571429l0 548.571429q0 7.428571-5.428571 12.857143t-12.857143 5.428571l-548.571429 0q-7.428571 0-12.857143-5.428571t-5.428571-12.857143l0-548.571429q0-7.428571 5.428571-12.857143t12.857143-5.428571l548.571429 0q7.428571 0 12.857143 5.428571t5.428571 12.857143zm146.285714 548.571429l0-548.571429q0-68-48.285714-116.285714t-116.285714-48.285714l-548.571429 0q-68 0-116.285714 48.285714t-48.285714 116.285714l0 548.571429q0 68 48.285714 116.285714t116.285714 48.285714l548.571429 0q68 0 116.285714-48.285714t48.285714-116.285714z"  horiz-adv-x="1024" />

    
    <glyph glyph-name="input" unicode="&#58890;" d="M1027.25 749.023c-8.177-28.993-15.293-55.968-35.474-72.113-175.342-142.313-315.852-318.614-474.946-476.752-4.247-4.247-9.241-7.862-12.214-12.639-67.545-105.46-185.75-118.949-289.299-158.457-22.303-8.498-56.928 31.012-50.234 54.59 18.692 66.060 37.068 132.543 57.349 198.284 3.503 11.261 14.019 20.711 23.046 29.419 151.234 145.287 303.319 289.726 453.813 435.65 35.897 34.836 67.014 74.661 99.833 112.575 44.288 51.188 106.311 55.33 154.635 7.862 29.102-28.569 64.466-53.42 71.156-98.452 0.955-5.841 1.806-11.684 2.762-17.524 2.017-1.276-2.762-1.167-0.423-2.444v0 0zM751.97 700.489c-146.562-146.879-293.019-293.657-436.075-437.031 24.641-24.958 52.038-52.678 75.936-76.786 146.243 143.269 294.080 287.814 441.068 431.614-29.843 30.373-57.349 58.199-80.927 82.204v0 0zM787.015 762.514c36.428-34.941 68.181-65.315 105.674-101.321 6.692 9.133 13.169 20.39 21.984 29.524 63.191 65.634 63.403 65.422-3.294 128.508-1.382 1.276-2.762 2.868-4.247 4.247-18.479 16.567-37.068 16.781-55.33 0-20.815-19.223-41.316-38.977-64.784-60.961v0 0zM244.31 108.294c33.774 13.489 60.325 24.322 83.052 33.455-17.524 20.498-33.455 39.401-52.253 61.492-10.514-32.287-19.329-59.794-30.8-94.948v0 0zM455.87-132.474c-97.495 0-195.097-0.105-292.697 0.105-53.42 0.105-100.575 14.548-136.578 57.668-23.575 28.462-30.269 61.492-30.373 96.54-0.212 194.14-1.061 388.283 0.212 582.53 0.637 104.291 65.104 166.316 169.396 166.953 105.46 0.637 210.922 0 316.382 0.212 23.046 0 45.136-1.806 48.113-30.906 2.017-21.347-15.293-32.075-49.491-32.075-102.487-0.105-204.975 0.105-307.46-0.105-73.281-0.105-114.912-42.271-114.912-115.763-0.105-187.239-0.105-374.477 0-561.61 0-57.988 39.084-99.194 97.495-99.619 200.087-0.746 400.071-0.637 600.267-0.105 47.366 0.105 77.955 33.879 78.166 85.174 0.531 128.082 0.212 256.167 0.423 384.353 0 9.772-2.233 22.197 2.547 28.89 8.285 11.261 22.303 26.763 32.178 25.595 10.41-1.167 19.436-19.436 27.613-31.329 2.762-4.144 0.637-11.577 0.637-17.524 0-127.126 0.105-254.255 0-381.379-0.105-107.056-50.659-157.183-157.818-157.287-94.948-0.318-189.47-0.318-284.097-0.318v0 0z"  horiz-adv-x="1024" />

    
    <glyph glyph-name="login" unicode="&#58896;" d="M384 384l-320 0 0 128 320 0 0 128 192-192-192-192zM1024 896l0-832-384-192 0 192-384 0 0 256 64 0 0-192 320 0 0 576 256 128-576 0 0-256-64 0 0 320z"  horiz-adv-x="1024" />

    
    <glyph glyph-name="toggle" unicode="&#58897;" d="M864 160h-672v274.752l73.376-73.376c6.256-6.256 14.432-9.376 22.624-9.376s16.368 3.12 22.624 9.376c12.496 12.496 12.496 32.752 0 45.248l-127.984 127.984c-1.488 1.488-3.136 2.832-4.912 4.016-0.752 0.496-1.584 0.848-2.368 1.28-1.024 0.56-2.032 1.184-3.12 1.664-1.040 0.416-2.128 0.672-3.2 0.992-0.928 0.272-1.808 0.624-2.768 0.832-4.144 0.816-8.384 0.816-12.528 0-0.96-0.208-1.84-0.56-2.768-0.832-1.072-0.32-2.16-0.56-3.2-0.992-1.088-0.464-2.096-1.088-3.12-1.664-0.8-0.432-1.632-0.784-2.368-1.28-1.76-1.184-3.424-2.528-4.912-4.016l-127.984-127.984c-12.496-12.496-12.496-32.752 0-45.248 12.496-12.496 32.752-12.496 45.248 0l73.36 73.376v-306.752c0-17.664 14.336-32 32-32h704c17.664 0 32 14.336 32 32s-14.336 32-32 32zM969.376 406.624l-73.376-73.376v306.752c0 17.664-14.336 32-32 32h-704c-17.664 0-32-14.336-32-32s14.336-32 32-32h672v-274.752l-73.376 73.376c-12.496 12.496-32.752 12.496-45.248 0-12.496-12.496-12.496-32.752 0-45.248l127.984-127.984c1.488-1.488 3.136-2.832 4.912-4.016 0.752-0.496 1.584-0.848 2.368-1.28 1.024-0.56 2.032-1.184 3.12-1.664 1.040-0.416 2.128-0.672 3.2-0.992 0.928-0.272 1.808-0.624 2.768-0.832 2.064-0.384 4.176-0.608 6.272-0.608 2.096 0 4.208 0.224 6.272 0.624 0.96 0.208 1.84 0.56 2.768 0.832 1.072 0.32 2.16 0.56 3.2 0.992 1.088 0.464 2.096 1.088 3.12 1.664 0.8 0.432 1.632 0.784 2.368 1.28 1.76 1.184 3.424 2.528 4.912 4.016l127.984 127.984c12.496 12.496 12.496 32.752 0 45.248-12.496 12.496-32.752 12.48-45.248-0.016z"  horiz-adv-x="1025" />

    
    <glyph glyph-name="danchu" unicode="&#58917;" d="M968.00128 743.13216 215.11168 743.13216c-29.70112 0-53.77792-24.07936-53.77792-53.79072l0-215.10784L0 366.67904l161.33376-107.55456 0-215.12192c0-29.69856 24.0768-53.77536 53.77792-53.77536l752.8896 0c29.70112 0 53.77792 24.0768 53.77792 53.77536l0 645.3376C1021.7792 719.0528 997.70368 743.13216 968.00128 743.13216zM403.3344 286.00704c-44.54912 0-80.66688 36.11776-80.66688 80.672 0 44.55552 36.11776 80.672 80.66688 80.672 44.54912 0 80.66688-36.11776 80.66688-80.672C484.00128 322.12352 447.88352 286.00704 403.3344 286.00704zM779.77856 286.00704c-44.55168 0-80.66688 36.11776-80.66688 80.672 0 44.55552 36.11392 80.672 80.66688 80.672s80.66688-36.11776 80.66688-80.672C860.44544 322.12352 824.33152 286.00704 779.77856 286.00704z"  horiz-adv-x="1024" />

    
    <glyph glyph-name="jindutiao" unicode="&#58926;" d="M851.939249 783.655306 213.782991 783.655306c-63.815421 0-116.028597-52.213175-116.028597-116.028597l0 0c0-63.815421 52.213175-116.028597 116.028597-116.028597l638.156258 0c63.815421 0 116.028597 52.213175 116.028597 116.028597l0 0C967.967846 731.44213 915.75467 783.655306 851.939249 783.655306zM878.885971 667.626709c0-23.931039-19.579941-43.51098-43.51098-43.51098L230.439346 624.11573c-23.931039 0-43.51098 19.579941-43.51098 43.51098l0 0c0 23.931039 19.579941 43.51098 43.51098 43.51098l604.935646 0C859.306031 711.137689 878.885971 691.557748 878.885971 667.626709L878.885971 667.626709zM851.939249 478.167706 213.782991 478.167706c-63.815421 0-116.028597-52.213175-116.028597-116.028597l0 0c0-63.815421 52.213175-116.028597 116.028597-116.028597l638.156258 0c63.815421 0 116.028597 52.213175 116.028597 116.028597l0 0C967.967846 425.954531 915.75467 478.167706 851.939249 478.167706zM905.062144 348.323453c0-23.931039-19.579941-43.51098-43.51098-43.51098l-445.066565 0c-23.931039 0-43.51098 19.579941-43.51098 43.51098l0 0c0 23.931039 19.579941 43.51098 43.51098 43.51098l445.066565 0C885.482203 391.833409 905.062144 372.254491 905.062144 348.323453L905.062144 348.323453zM851.939249 172.680107 213.782991 172.680107c-63.815421 0-116.028597-52.213175-116.028597-116.028597l0 0c0-63.815421 52.213175-116.028597 116.028597-116.028597l638.156258 0c63.815421 0 116.028597 52.213175 116.028597 116.028597l0 0C967.967846 120.466931 915.75467 172.680107 851.939249 172.680107zM905.062144 56.65151c0-23.931039-19.579941-43.51098-43.51098-43.51098L619.11867 13.140531c-23.931039 0-43.51098 19.579941-43.51098 43.51098l0 0c0 23.931039 19.579941 43.51098 43.51098 43.51098l242.432495 0C885.482203 100.16249 905.062144 80.582549 905.062144 56.65151L905.062144 56.65151z"  horiz-adv-x="1024" />

    
    <glyph glyph-name="kongzhuangtai" unicode="&#58927;" d="M411.913491 233.079732c55.936987 0 111.873973-0.031722 167.81096 0.099261 2.65855 0.00614 5.741771 0.846274 7.879458 2.355651 4.301979 3.038196 5.844102 9.746992 4.136204 14.650675-1.547239 4.444219-6.573719 7.449669-12.571317 7.449669-55.596226 0.00614-111.192452 0.004093-166.787654 0.004093-56.107879 0-112.215758 0.026606-168.322613-0.084934-2.526543-0.005117-5.39794-0.707105-7.506974-2.038426-5.270027-3.326768-6.681166-10.031471-4.837168-14.452153 2.361791-5.664 5.698792-7.981788 12.899798-7.981788C300.380278 233.078709 356.146373 233.079732 411.913491 233.079732zM371.256512 498.116037c-42.116213 0-84.232426-0.085958-126.347616 0.073678-8.300037 0.031722-13.634532-5.658883-14.052041-12.718673-0.425695-7.206122 5.716188-12.907984 13.783934-12.912078 84.913948-0.039909 169.827897-0.049119 254.741845 0.089028 2.616594 0.004093 5.668093 1.112334 7.755638 2.704598 4.669346 3.561106 6.381337 9.821693 4.699022 14.388708-1.829671 4.966105-7.380084 8.371668-13.721513 8.371668C455.829699 498.119107 413.542594 498.116037 371.256512 498.116037zM372.029108 377.365906c-42.956348 0-85.912695 0.014326-128.868019-0.046049-1.926886-0.00307-4.098341-0.226151-5.733585-1.119497-4.91801-2.687202-7.744381-8.966209-6.482645-13.486152 1.664919-5.965875 6.974855-9.900487 13.500479-9.901511 85.060281-0.00921 170.119539-0.010233 255.17982 0.002047 7.813966 0.001023 12.644995 4.868891 12.571317 12.531408-0.073678 7.68503-4.501524 12.017708-12.32163 12.017708C457.259258 377.367953 414.644695 377.365906 372.029108 377.365906zM963.474508 454.113871c-0.666172-3.858888-1.529843-7.696286-1.967818-11.580756-2.808976-24.950252-12.003382-47.543829-26.149567-68.003813-22.13923-32.020274-51.90516-53.689806-89.765443-63.74072-5.619998-1.49198-11.349489-2.576685-16.95823-4.108574-1.648546-0.450255-3.299139-1.544169-4.532223-2.764973-12.597923-12.475126-25.195845-24.952298-37.58092-37.637202-2.88163-2.951215-4.582365-2.814092-7.378038 0.064468-10.331299 10.639315-21.24179 20.73423-31.266098 31.647791-5.519714 6.008854-11.68104 9.392928-19.59836 10.816347-23.258727 4.184299-43.953048 14.360056-62.758346 28.396747-20.426215 15.246239-36.053124 34.635845-47.239907 57.45148-8.359388 17.049305-13.216 35.103496-15.163351 54.139038-3.25309 31.800263 2.281973 61.811788 16.593933 90.187045 8.460696 16.775059 19.7406 31.653931 33.583886 44.387953 20.449751 18.810415 44.3593 31.66928 71.296813 38.09155 11.981892 2.857071 24.548092 3.76372 36.908608 4.40124 14.112416 0.727571 28.294416 0.357134 42.440601 0.130983 36.643572-0.585331 69.619614-11.795651 98.481965-34.594913 30.503734-24.094768 49.230238-55.558363 57.811684-93.208868 1.370207-6.012947 1.476631-12.310374 2.24411-18.466584 0.132006-1.056052 0.651846-2.065032 0.992607-3.095501C963.474508 469.122703 963.474508 461.617775 963.474508 454.113871zM728.355583 403.306718c38.635949 0 76.894298 0 115.151623 0 0 3.025916 0 5.690606 0 8.908904-17.686824 0-35.143405 0-52.599985 0 0 11.187807 0 21.814842 0 32.809243 13.608949 0 26.851555 0 40.253796 0 0 2.820232 0 5.257747 0 7.711636-30.726815 0-61.145615 0-91.553159 0 0-2.684132 0-5.01113 0-7.889691 13.933337 0 27.640524 0 41.34771 0 0-11.186783 0-21.813818 0-32.809243-17.700127 0-35.031864 0-52.598962 0C728.355583 409.000394 728.355583 406.335704 728.355583 403.306718zM782.01776 509.213793c-18.61394 0-36.089963 0-53.528124 0 0-9.082866 0-17.669428 0-26.188452 3.047406 0 5.713119 0 8.925277 0 0 6.105045 0 11.972683 0 17.787108 32.66598 0 64.771189 0 97.248881 0 0-6.109138 0-11.849886 0-17.735943 2.819209 0 5.255701 0 7.688099 0 0 8.893554 0 17.473977 0 26.347065-17.384949 0-34.399461 0-51.097772 0-1.969864 4.926196-3.792373 9.484002-5.475711 13.694907-3.360538-0.317225-5.922896-0.559748-8.877181-0.839111C778.609127 517.914966 780.105201 514.094964 782.01776 509.213793zM836.983629 468.830037c-13.007245 7.91118-25.451672 15.479553-38.056758 23.146163-1.921769-3.143597-3.198855-5.233188-4.102435-6.712889 12.663414-7.975649 24.994254-15.742543 37.57785-23.669072C833.607742 463.496565 835.009671 465.712023 836.983629 468.830037zM736.867444 461.213569c14.274098 5.266957 26.711362 13.270235 38.164205 22.757307-1.978051 2.190899-3.660366 4.054339-4.431939 4.9088-12.608156-7.29515-24.661679-14.268982-36.879955-21.339004C734.554772 465.861426 735.645616 463.667457 736.867444 461.213569zM705.601346 793.851529c6.655584-2.342348 13.791098-3.814886 19.87977-7.182586 21.516036-11.902074 34.137495-29.78128 34.33397-55.116295 0.119727-15.517415 0.031722-31.036877 0.01842-46.555315-0.00614-7.393387-4.295839-11.850909-11.393491-11.895935-8.042163-0.052189-13.110599 4.473895-13.142322 11.958356-0.062422 14.835893 0.062422 29.67281-0.038886 44.508703-0.138146 20.389376-16.084327 36.833907-34.627658 38.676881-5.535063 0.549515-11.107989 1.00284-16.663518 1.004887-184.344518 0.051165-368.689037 0.061398-553.033555 0.00921-15.767102-0.004093-28.924773-5.806239-36.95568-19.890003-2.864234-5.022387-5.202489-11.213389-5.208629-16.873296-0.258896-218.961944-0.36839-437.924911 0.030699-656.885831 0.035816-19.942191 9.963932-36.433794 25.53149-49.350988 10.202363-8.464789 21.795399-13.431917 34.663474-15.799848 1.651616-0.303922 3.357468-0.441045 5.037736-0.442068 198.157105-0.019443 396.315234-0.01842 594.47234-0.01842 1.635243 0 3.269463 0 5.228071 0-3.447519 5.429663-6.777357 10.157337-9.573029 15.181771-6.327102 11.370978-8.91095 23.700795-8.899694 36.677341 0.045025 55.422264 0.153496 110.846574-0.118704 166.267814-0.042979 8.742105 8.16803 17.648962 19.35379 11.783371 4.337795-2.27481 5.357008-6.043646 5.354961-10.494005-0.019443-45.701878-0.011256-91.40478-0.011256-137.106658 0-2.007727 0-4.015454 0-6.396687 42.995233 0 85.562724 0 128.868019 0 0-9.480932 0.613984-18.657942-0.187265-27.709085-0.684592-7.736195-2.073218-15.667841-4.750187-22.922059-9.720386-26.345018-28.54615-42.723034-56.08332-48.852638-3.165086-0.704035-6.345522-1.342578-9.518794-2.010797-222.057445 0-444.11489 0-666.172335 0-0.51677 0.330528-1.02126 0.928139-1.553379 0.953721-14.839986 0.722454-28.335349 5.511527-40.936341 13.214976-19.113313 11.68411-32.945343 27.773554-40.313148 48.987714-2.684132 7.730055-4.184299 15.871479-6.224772 23.824615 0 222.057445 0 444.11489 0 666.172335 0.331551 0.5137 0.880043 0.994654 0.961908 1.545192 3.077082 20.839631 13.505595 36.761252 32.274054 46.490847 6.909363 3.581572 14.656815 5.544273 22.022573 8.245801C314.015833 793.851529 509.809101 793.851529 705.601346 793.851529zM760.307296 60.958606c1.25048-36.998659 35.131125-56.483432 63.164598-49.957809 22.994714 5.352915 41.275056 28.680203 39.130206 49.957809C828.595588 60.958606 794.567587 60.958606 760.307296 60.958606z"  horiz-adv-x="1024" />

    


  </font>
</defs>
</svg>
